<?xml version="1.0" encoding="utf-8"?>
<!-- Generator: Adobe Illustrator 25.0.0, SVG Export Plug-In . SVG Version: 6.00 Build 0)  -->
<svg version="1.1" id="Layer_1" xmlns="http://www.w3.org/2000/svg" xmlns:xlink="http://www.w3.org/1999/xlink" x="0px" y="0px"
	 viewBox="0 0 502.2 101.3" style="enable-background:new 0 0 502.2 101.3;" xml:space="preserve">
<style type="text/css">
	.st0{display:none;}
	.st1{display:inline;}
	.st2{fill:#FF0000;}
	.st3{fill:none;stroke:#000000;stroke-width:11;stroke-miterlimit:10;}
	.st4{fill:#00748B;stroke:#000000;stroke-width:11;stroke-miterlimit:10;}
	.st5{display:none;fill:none;}
	.st6{fill:#00748B;}
</style>
<g id="Layer_1_1_" class="st0">
	<path class="st1" d="M6.6,4.2h491c1.1,0,2,0.9,2,2v89c0,1.1-0.9,2-2,2H6.6c-1.1,0-2-0.9-2-2v-89C4.6,5.1,5.5,4.2,6.6,4.2z"/>
	<g class="st1">
		<path class="st2" d="M29.7,68.4c-0.3-0.4-0.7-0.6-1.2-0.6s-1.6,0.6-3.2,1.8c-1.6,1.2-2.9,1.8-4,1.8c-0.7,0-1.2-0.4-1.4-1.1
			c-0.3-0.8-0.4-2.5-0.4-5.2V47.5c0-0.6,0.1-1,0.2-1.1c0.1-0.1,0.4-0.2,0.8-0.2h6.6c2.1,0,3.2-0.7,3.2-2.1c0-1.2-0.7-1.9-2.2-1.9
			h-7.2c-0.9,0-1.3-0.3-1.3-1V24.7c0-1.3-0.2-2.2-0.5-2.7c-0.3-0.5-1.1-0.8-2.3-0.8c-1.1,0-1.7,1-1.7,2.9c0,4.1-0.2,7.2-0.6,9.4
			c-0.4,2.2-1.1,3.9-2.1,5.1c-1,1.2-1.8,2-2.3,2.4c-0.6,0.4-1.4,0.7-2.4,1c-1.1,0.2-1.8,0.4-2.1,0.7C5.2,43,5.1,43.4,5.1,44
			c0,0.7,0.2,1.3,0.7,1.7s1.4,0.6,2.8,0.6c1.7,0,2.7,0,2.9,0.1c0.2,0.1,0.3,0.4,0.3,1v18.8c0,7.5,2.6,11.3,7.8,11.3
			c2,0,4.3-1,6.9-3.1s3.9-3.6,3.9-4.5C30.2,69.2,30.1,68.8,29.7,68.4z"/>
		<path class="st2" d="M69.1,46.1c-4-3.7-8.7-5.6-14.1-5.6c-6.6,0-11.7,1.8-15.2,5.4c0.8-0.2,1.8-0.5,2.9-0.6
			c4.1-0.7,7.3-0.4,8.9-0.2c0.2,0,0.4,0,0.6,0c0.8-0.1,1.6-0.2,2.5-0.2c3.7,0,6.7,1.3,9.1,3.9c2.4,2.6,3.6,5.9,3.6,10
			s-1.1,7.5-3.3,10.3c-2.2,2.7-5.2,4-9,4c-3.6,0-6.5-1.3-8.8-3.9s-3.5-6.1-3.5-10.6c0-4,1-7.3,3.1-9.9c1.1-1.3,2.4-2.3,4-3
			c-5.8,1.2-10.8,3.8-13.4,5.4c-0.4,0.3-0.8,0.6-0.9,1.1c-0.9,2.2-1.4,4.5-1.4,7c0,5.2,2,9.5,6.1,13c4,3.5,8.6,5.2,13.7,5.2
			c6.4,0,11.6-1.7,15.4-5.1c3.8-3.4,5.8-7.8,5.8-13.3C75.1,54,73.1,49.8,69.1,46.1z"/>
		<path class="st2" d="M280.5,46.1c-4.1-3.7-8.8-5.6-14.3-5.6c-6.7,0-11.8,1.8-15.4,5.4c0.8-0.2,1.8-0.5,2.9-0.6
			c4.2-0.7,7.4-0.4,9-0.2c0.2,0,0.4,0,0.6,0c0.8-0.1,1.6-0.2,2.5-0.2c3.7,0,6.8,1.3,9.2,3.9c2.4,2.6,3.6,5.9,3.6,10
			s-1.1,7.5-3.4,10.3c-2.3,2.7-5.3,4-9.1,4c-3.6,0-6.6-1.3-8.9-3.9s-3.5-6.1-3.5-10.6c0-4,1.1-7.3,3.2-9.9c1.1-1.3,2.4-2.3,4-3
			c-5.9,1.2-10.9,3.8-13.5,5.4c-0.4,0.3-0.8,0.6-1,1.1c-0.9,2.2-1.4,4.5-1.4,7c0,5.2,2.1,9.5,6.2,13c4.1,3.5,8.7,5.2,13.9,5.2
			c6.5,0,11.7-1.7,15.6-5.1s5.8-7.8,5.8-13.3C286.6,54,284.6,49.8,280.5,46.1z"/>
		<path class="st2" d="M324.1,46.1c-4-3.7-8.7-5.6-14.1-5.6c-6.6,0-11.7,1.8-15.2,5.4c0.8-0.2,1.8-0.5,2.9-0.6
			c4.1-0.7,7.3-0.4,8.9-0.2c0.2,0,0.4,0,0.6,0c0.8-0.1,1.6-0.2,2.5-0.2c3.7,0,6.7,1.3,9.1,3.9c2.4,2.6,3.6,5.9,3.6,10
			s-1.1,7.5-3.3,10.3c-2.2,2.7-5.2,4-9,4c-3.6,0-6.5-1.3-8.8-3.9s-3.5-6.1-3.5-10.6c0-4,1-7.3,3.1-9.9c1.1-1.3,2.4-2.3,4-3
			c-5.8,1.2-10.8,3.8-13.4,5.4c-0.4,0.3-0.8,0.6-0.9,1.1c-0.9,2.2-1.4,4.5-1.4,7c0,5.2,2,9.5,6.1,13c4,3.5,8.6,5.2,13.7,5.2
			c6.4,0,11.6-1.7,15.4-5.1s5.8-7.8,5.8-13.3C330.1,54,328.1,49.8,324.1,46.1z"/>
		<path class="st2" d="M102.7,68.4c-0.3-0.4-0.7-0.6-1.2-0.6s-1.6,0.6-3.2,1.8c-1.6,1.2-2.9,1.8-4,1.8c-0.7,0-1.2-0.4-1.4-1.1
			c-0.3-0.8-0.4-2.5-0.4-5.2V47.5c0-0.6,0.1-1,0.2-1.1s0.4-0.2,0.8-0.2h6.6c2.1,0,3.2-0.7,3.2-2.1c0-1.2-0.7-1.9-2.2-1.9h-7.2
			c-0.9,0-1.3-0.3-1.3-1V24.7c0-1.3-0.2-2.2-0.5-2.7s-1.1-0.8-2.3-0.8c-1.1,0-1.6,1-1.6,2.9c0,4.1-0.2,7.2-0.6,9.4s-1.1,3.9-2.1,5.1
			c-1,1.2-1.8,2-2.3,2.4c-0.6,0.4-1.4,0.7-2.4,1s-1.7,0.6-2.1,0.8c-0.4,0.3-0.5,0.7-0.5,1.3c0,0.7,0.2,1.3,0.7,1.7s1.4,0.6,2.7,0.6
			c1.7,0,2.7,0,2.9,0.1c0.2,0.1,0.3,0.4,0.3,1v18.8c0,7.5,2.6,11.3,7.9,11.3c2,0,4.3-1,6.9-3.1s3.9-3.6,3.9-4.5
			C103.2,69.2,103.1,68.8,102.7,68.4z"/>
		<path class="st2" d="M150.1,73.2c-0.4-0.3-1-0.6-1.7-0.8c-3.1-0.9-4.7-2.5-4.7-4.9V51c0-3-1.3-5.5-3.9-7.7
			c-2.6-2.2-6.1-3.2-10.4-3.2c-3.5,0-6.7,0.6-9.6,1.7c-2.9,1.1-4.4,2.5-4.4,4.1c0,0.7,0.3,1.2,0.8,1.6c0.6,0.4,1.2,0.6,2,0.6
			c0.3,0,1-0.3,1.9-0.9c2.7-1.8,5.4-2.7,8.3-2.7c2.2,0,4,0.6,5.3,1.9c1.3,1.2,2,2.9,2,4.9v13.3c0,2.6-1,4.7-3,6.3
			c-2,1.6-4.2,2.4-6.6,2.4c-2.6,0-5-0.8-7-2.5c-2-1.6-3-4-3-7.1c0-2.6,0.9-4.8,2.7-6.3c1.8-1.6,4-2.4,6.7-2.4c1.3,0,2.6,0.3,3.8,0.9
			c1.2,0.6,2.1,0.9,2.5,0.9c0.6,0,1.1-0.1,1.6-0.4c0.4-0.3,0.6-0.7,0.6-1.2c0-1-1-2-3.1-3c-2.1-1-4-1.4-5.7-1.4
			c-5.1,0-9.3,1.3-12.6,3.9c-3.2,2.6-4.9,5.6-4.9,9c0,3.2,0.7,5.9,2.3,8.1c1.5,2.2,3.5,3.8,6,4.8s4.8,1.6,6.8,1.6
			c4.3,0,8.3-1.1,12-3.4c0.4-0.2,0.7-0.3,0.9-0.3c0.3,0,0.5,0.3,0.5,0.8c0,0.3,0.2,0.7,0.7,1c0.4,0.3,0.9,0.5,1.3,0.5
			c0.4,0,1.2-0.2,2.3-0.4s2.1-0.4,2.9-0.4c0.7,0,1.5,0.2,2.6,0.4s1.9,0.4,2.5,0.4s1.1-0.2,1.6-0.5s0.8-0.7,0.8-1.1
			C150.6,74,150.4,73.5,150.1,73.2z"/>
		<path class="st2" d="M175.4,74.5c-0.4-0.4-1.3-0.7-2.9-1c-1.6-0.3-2.6-0.7-3.1-1.4c-0.5-0.6-0.7-1.4-0.7-2.3V9.3
			c0-1.5-0.2-2.5-0.8-3.1c-0.5-0.6-1.3-0.9-2.4-0.9c-0.6,0-1.4,0.1-2.6,0.3c-1.1,0.2-2,0.3-2.6,0.3c-0.5,0-1.3-0.1-2.4-0.3
			c-1.1-0.2-1.9-0.3-2.4-0.3c-0.6,0-1.2,0.2-1.7,0.5C153.2,6.1,153,6.5,153,7s0.2,1,0.5,1.4c0.3,0.4,1.3,0.8,3,1.2
			c1.7,0.4,2.8,1,3.3,1.9c0.5,0.9,0.8,1.9,0.8,3.1v54.3c0,1.1-0.3,2.1-0.8,3s-1.6,1.4-3.3,1.7c-1.7,0.3-2.7,0.6-3,0.9
			c-0.3,0.4-0.5,0.8-0.5,1.4c0,0.5,0.2,1,0.6,1.3c0.4,0.3,1.3,0.5,2.6,0.5c0.9,0,2.3-0.1,4.1-0.4s3.2-0.4,4.1-0.4
			c1,0,2.5,0.1,4.5,0.4c2,0.2,3.5,0.4,4.5,0.4c1.6,0,2.5-0.5,2.5-1.6C175.9,75.5,175.7,75,175.4,74.5z"/>
		<path class="st2" d="M238.9,46.8c-3.8-3.8-8.5-5.7-14.1-5.7c-2,0-4.4,0.5-7,1.7c-2.6,1.1-4,2.4-4,3.9c0,0.3,0.2,0.7,0.6,1
			c0.4,0.3,0.9,0.5,1.3,0.5c0.5,0,1.5-0.4,3-1.1c1.5-0.8,3-1.1,4.4-1.1c3.8,0,6.8,1.4,9.2,4.1c2.4,2.8,3.6,6.1,3.6,9.9
			c0,5-1.5,8.5-4.5,10.7c-3,2.1-5.8,3.2-8.5,3.2c-2.3,0-4.8-0.8-7.4-2.4c-2.6-1.6-3.9-3.4-3.9-5.4V9c0-1.5-0.2-2.5-0.7-3
			s-1.2-0.8-2.3-0.8c-0.5,0-1.4,0.1-2.5,0.3c-1.1,0.2-2,0.3-2.6,0.3c-0.7,0-1.6-0.1-3-0.4c-1.3-0.3-2.4-0.4-3-0.4s-1.3,0.2-1.9,0.5
			c-0.7,0.3-1,0.8-1,1.3s0.2,1,0.5,1.4c0.3,0.4,1.3,0.7,3,0.9s2.9,0.7,3.6,1.3c1.3,1.1,2,3,2,5.7v50.1c0,1.5-0.4,2.8-1.1,3.9
			c-0.7,1.1-2.1,1.9-4.2,2.2c-2,0.4-3.2,0.7-3.6,1c-0.3,0.3-0.5,0.6-0.5,1.1c0,0.8,0.5,1.4,1.2,1.8c0.5,0.3,1.1,0.4,1.8,0.4
			s1.6-0.1,2.9-0.4c1.3-0.3,2.3-0.4,3-0.4s1.7,0.1,3,0.4c1.2,0.3,2.2,0.4,2.8,0.4c0.8,0,1.3-0.1,1.6-0.3c0.3-0.2,0.5-0.6,0.8-1
			c0.2-0.5,0.4-0.8,0.6-1l1.9,0.8c4.3,2.1,7.9,3.2,10.7,3.2c5.6,0,10.3-1.6,14.2-4.9s5.9-7.4,5.9-12.5
			C244.5,55.3,242.6,50.6,238.9,46.8z"/>
		<path class="st2" d="M380.8,69.2c-0.4-0.5-0.8-0.7-1.3-0.7s-1.2,0.5-2.1,1.5s-1.6,1.5-2.2,1.5c-1.1,0-2-0.4-2.7-1.2l-11.6-12.5
			c-0.8-0.8-1.1-1.6-1.1-2.4c0-0.4,0.1-0.8,0.3-1c0.2-0.2,1.2-1.2,2.9-2.9c1.7-1.7,3.3-2.9,4.6-3.5c1.4-0.6,3.8-0.9,7.5-0.9
			c2.4,0,3.7-0.7,3.7-2c0-0.7-0.4-1.3-1.1-1.7s-1.5-0.6-2.5-0.6c-0.9,0-2.2,0.1-4.1,0.3c-1.8,0.2-3.2,0.3-4.1,0.3
			c-0.7,0-1.8-0.1-3.1-0.2c-1.3-0.2-2.3-0.2-3-0.2c-1,0-1.7,0.2-2,0.5s-0.5,0.9-0.5,1.6c0,0.7,0.4,1.2,1.2,1.5
			c0.8,0.3,1.2,0.6,1.2,0.8s-0.2,0.5-0.5,0.8l-6.6,6.7c-2.3,2.3-3.6,3.5-4,3.5c-0.6,0-0.9-0.4-0.9-1.2V18c0-4.3-0.1-7.2-0.3-8.6
			c-0.2-1.4-0.5-2.3-0.9-2.7c-0.3-0.3-0.8-0.5-1.5-0.5c-0.4,0-1.1,0.1-2.2,0.3c-1.1,0.2-2,0.3-2.7,0.3s-1.6-0.2-2.7-0.4
			c-1.1-0.3-2-0.4-2.6-0.4s-1.1,0.2-1.7,0.5c-0.6,0.3-0.8,0.8-0.8,1.3c0,0.6,0.2,1.1,0.5,1.5c0.4,0.4,1.4,0.8,3,1.2s2.7,0.9,3.2,1.6
			c0.5,0.7,0.7,1.5,0.7,2.4v54c0,1.1-0.2,2.1-0.7,2.9s-1.6,1.3-3.3,1.5c-1.7,0.2-2.7,0.5-3,0.8c-0.3,0.4-0.5,0.9-0.5,1.5
			c0,1.3,1,1.9,3.1,1.9c0.9,0,2.3-0.1,4.1-0.4c1.8-0.3,3.2-0.4,4.1-0.4c1,0,2.5,0.1,4.4,0.4c2,0.2,3.4,0.4,4.4,0.4s1.7-0.1,2-0.4
			s0.4-0.7,0.4-1.2c0-0.6-0.2-1.1-0.5-1.5c-0.4-0.4-1.3-0.7-2.8-1c-1.5-0.2-2.5-0.6-3-1.3c-0.4-0.6-0.7-1.4-0.7-2.3
			c0-2,0-3.1,0.1-3.5s0.5-0.9,1.3-1.6s1.5-1.4,2.1-2c0.7-0.7,1.1-1,1.3-1c0.6,0,2.4,1.7,5.3,5.2c4,4.7,7,7.9,9.1,9.4
			s3.9,2.2,5.4,2.2c1.7,0,3.4-0.8,5.3-2.4c1.8-1.6,2.7-3.3,2.7-5C381.4,70.2,381.2,69.7,380.8,69.2z"/>
		<path class="st2" d="M397.6,27.4c-1.1-1.1-2.4-1.6-3.9-1.6c-1.4,0-2.6,0.5-3.7,1.5s-1.6,2.2-1.6,3.5c0,1.4,0.5,2.7,1.6,3.7
			c1,1,2.3,1.5,3.8,1.5s2.7-0.5,3.8-1.4c1.1-0.9,1.6-2,1.6-3.4C399.2,29.7,398.7,28.5,397.6,27.4z M403,73c-0.4-0.3-1.1-0.5-2.1-0.6
			s-1.8-0.5-2.4-1s-0.9-1.6-0.9-3.2V47.6c0-0.2,0-0.6,0-1.1s0.1-1,0.1-1.3c0-2.1-0.6-3.1-1.8-3.1c-0.6,0-1.4,0.1-2.6,0.3
			s-2,0.3-2.6,0.3c-0.5,0-1.3-0.1-2.3-0.4c-1-0.3-1.9-0.4-2.4-0.4c-0.7,0-1.2,0.2-1.7,0.6c-0.5,0.4-0.7,0.9-0.7,1.5
			c0,0.5,0.1,1,0.4,1.4s1,0.7,2.2,0.9s2,0.6,2.6,1c0.6,0.5,0.9,1.4,0.9,2.8v16.7c0,2.3-0.2,3.7-0.7,4.3s-1.3,1-2.6,1.2
			c-1.2,0.2-2,0.5-2.3,0.8s-0.5,0.7-0.4,1.2c0,0.8,0.5,1.6,1.2,2c0.5,0.2,1,0.4,1.6,0.4c0.8,0,1.9-0.1,3.4-0.4s2.7-0.4,3.5-0.4
			s2,0.1,3.7,0.3c1.7,0.2,2.9,0.3,3.7,0.3c1.9,0,2.9-0.5,2.9-1.7C403.6,73.9,403.4,73.3,403,73z"/>
		<path class="st2" d="M448.8,72.8c-1.2-0.3-2.1-0.6-2.5-1.1c-0.5-0.4-0.7-1.4-0.7-2.8v-14l0.1-3.1c0-2.4-0.2-4.2-0.6-5.5
			s-1.2-2.4-2.5-3.2c-1.2-0.9-2.7-1.3-4.4-1.3c-2.9,0-5.8,1.2-8.8,3.5s-4.5,4.1-4.5,5.2c0,0.4,0.2,0.7,0.5,1s0.6,0.5,0.9,0.5
			c0.8,0,2.1-0.8,4-2.3c1.8-1.5,3.3-2.3,4.3-2.3c2.3,0,3.5,1.3,3.5,3.8c0,0.2,0,1.3-0.1,3.2s-0.2,6.7-0.2,14.5
			c0,1.2-0.4,2.1-1.2,2.7c-0.8,0.6-1.7,0.9-2.8,0.9c-0.5,0-1,0.2-1.5,0.6c-0.4,0.4-0.6,0.8-0.6,1.2c0,0.6,0.2,1,0.8,1.4
			c0.5,0.4,1,0.6,1.6,0.6c0.4,0,1.2-0.1,2.6-0.4c1.3-0.2,3-0.4,5-0.4c1.2,0,2.6,0.1,4.3,0.2c1.7,0.1,2.7,0.2,2.9,0.2
			c1.2,0,1.8-0.5,1.8-1.5C450.7,73.6,450.1,73.1,448.8,72.8z M428.7,73.3c-0.3-0.3-0.9-0.6-1.8-0.8c-0.9-0.2-1.7-0.5-2.3-0.8
			c-0.6-0.4-1-0.7-1.2-0.9c-0.2-0.2-0.2-0.8-0.2-1.9l0.3-13.9c0-3.1,0-5.9-0.1-8.6c0-1.6-0.2-2.7-0.5-3.2s-0.7-0.8-1.4-0.8
			c-0.3,0-1.1,0.1-2.4,0.3S417,43,416.6,43c-0.6,0-1.3-0.1-2.2-0.3c-0.9-0.2-1.5-0.3-1.9-0.3c-0.8,0-1.5,0.2-2.1,0.7
			c-0.5,0.4-0.8,0.9-0.8,1.4c0,1.1,0.8,1.8,2.2,2s2.5,0.7,3,1.3s0.7,1.5,0.7,2.7v15.7c0,1.8-0.1,3-0.3,3.6c-0.2,0.6-0.7,1.3-1.4,2.1
			c-0.3,0.3-0.9,0.4-2.1,0.5c-1,0.1-1.6,0.3-1.9,0.6c-0.3,0.3-0.4,0.8-0.4,1.3c0,1.2,0.8,1.8,2.5,1.8c0.8,0,1.9-0.1,3.5-0.3
			s2.8-0.3,3.8-0.3c1.2,0,2.4,0.1,3.7,0.3c1.2,0.2,2.5,0.3,3.6,0.3c1.7,0,2.6-0.5,2.6-1.6C429.1,74,429,73.6,428.7,73.3z"/>
		<path class="st2" d="M496.1,69.2c-2-2.9-4.6-5.1-7.8-6.6l-0.2-0.2l0.3-0.4c3.2-2.2,4.8-5.1,4.8-8.7c0-3.4-1.2-6.1-3.5-8.3
			s-5.4-3.6-9.3-4c-0.4,0-0.6-0.2-0.6-0.5s0.5-0.9,1.6-1.8c1.1-0.9,2.4-1.3,4-1.3c0.3,0,0.7,0,1.2,0.1s0.9,0.1,1.2,0.1
			c1.4,0,2.6-0.3,3.5-1s1.4-1.6,1.4-2.7c0-1.9-0.9-2.9-2.8-2.9c-3.2,0-5.4,0.2-6.7,0.6c-1.3,0.4-2.8,1.5-4.4,3.4
			c-1.6,1.9-2.8,3.6-3.4,5.1c-0.2,0.5-0.6,0.7-1.1,0.8c-4.2,0.5-7.7,1.8-10.5,3.9c-2.8,2.1-4.1,4.7-4.1,7.8c0,2,0.5,3.8,1.4,5.4
			c0.9,1.6,2.2,3,3.8,4l0.4,0.5l-0.3,0.3c-3.3,1.4-6,3.5-8.1,6.2s-3.1,5.7-3.1,8.8c0,5.3,2.2,9.7,6.6,13s9.7,5,16,5
			c6.1,0,11.4-1.6,15.9-4.8c4.5-3.2,6.7-7.3,6.7-12.3C499.1,75.2,498.1,72.1,496.1,69.2z M468.6,48.8c0.8-1.3,1.7-2.3,2.8-2.8
			c1.1-0.6,1.9-0.8,2.3-0.8c0.3,0,0.4,0.2,0.4,0.5c0,1.3,0.6,1.9,1.7,1.9c1.3,0,2.1-0.8,2.5-2.2c0.1-0.3,0.2-0.4,0.4-0.4
			c0.5,0,1.4,0.3,2.7,1c1.3,0.6,2.4,1.6,3.3,2.9c0.8,1.3,1.3,2.6,1.3,3.9c0,2.4-0.9,4.5-2.7,6.3c-1.8,1.7-3.9,2.6-6.4,2.6
			s-4.6-0.8-6.5-2.4c-1.9-1.6-2.9-3.6-2.9-5.9C467.4,51.5,467.8,50.1,468.6,48.8z M487,87.8c-2.9,2.4-6.4,3.7-10.6,3.7
			c-3.7,0-7-1.2-10.1-3.6s-4.6-5.5-4.6-9.4c0-4.1,1.3-7.3,3.9-9.6s6.2-3.5,10.9-3.5c4.3,0,7.8,1.2,10.6,3.5c2.8,2.4,4.2,5.5,4.2,9.5
			C491.3,82.2,489.9,85.4,487,87.8z"/>
	</g>
	<text transform="matrix(1 0 0 1 71.8694 298.6318)" class="st1" style="font-family:'PoorRichard-Regular'; font-size:100px;">total booking</text>
</g>
<g id="Layer_1_copy" class="st0">
	<path class="st3" d="M8.1,5.7h489c1.1,0,2,0.9,2,2v86c0,1.1-0.9,2-2,2H8.1c-1.1,0-2-0.9-2-2v-86C6.1,6.6,7,5.7,8.1,5.7z"/>
	<g class="st1">
		<g>
			<path class="st4" d="M326.1,45.9c-4.1-3.8-9-5.7-14.6-5.7c-6.7,0-12,1.9-15.7,5.5l-2.8,2.8l3.8-1.1c0.7-0.2,1.6-0.4,2.7-0.6
				c0.8-0.1,1.5-0.2,2.2-0.3c-3.9,1.3-7.1,3.1-8.9,4.2c-0.6,0.4-1.1,0.9-1.3,1.5c-0.9,2.2-1.4,4.7-1.4,7.3c0,5.4,2.1,9.9,6.3,13.5
				c4.2,3.6,8.9,5.4,14.1,5.4c6.6,0,11.9-1.8,15.8-5.3c4-3.5,6-8.2,6-13.8c0-2.5-0.5-4.9-1.6-7.1C329.7,49.9,328.2,47.8,326.1,45.9z
				 M308.9,46.5c0.7-0.1,1.5-0.2,2.2-0.2c3.4,0,6,1.2,8.2,3.5c2.2,2.4,3.3,5.4,3.3,9.2c0,3.9-1,6.9-3.1,9.5c-2,2.4-4.6,3.6-8,3.6
				c-3.3,0-5.8-1.1-7.9-3.5s-3.1-5.6-3.1-9.8c0-3.7,1-6.8,2.8-9.1c0.7-0.8,1.4-1.5,2.3-2c0.6-0.4,1.3-0.6,2-0.8
				C308.2,46.7,308.8,46.6,308.9,46.5z"/>
			<path class="st4" d="M281.7,45.8c-4.1-3.8-9-5.7-14.6-5.7c-6.7,0-12,1.9-15.7,5.5l-2.8,2.8l3.8-1.1c0.7-0.2,1.6-0.4,2.7-0.6
				c0.8-0.1,1.5-0.2,2.2-0.3c-3.9,1.3-7.1,3.1-8.9,4.2c-0.6,0.4-1.1,0.9-1.3,1.5c-0.9,2.2-1.4,4.7-1.4,7.3c0,5.4,2.1,9.9,6.3,13.5
				s8.9,5.4,14.1,5.4c6.6,0,11.9-1.8,15.8-5.3c4-3.5,6-8.2,6-13.8c0-2.5-0.5-4.9-1.6-7.1C285.3,49.8,283.8,47.7,281.7,45.8z
				 M264.5,46.4c0.7-0.1,1.5-0.2,2.2-0.2c3.4,0,6,1.2,8.2,3.5c2.2,2.4,3.3,5.4,3.3,9.2c0,3.9-1,6.9-3.1,9.5c-2,2.4-4.6,3.6-8,3.6
				c-3.3,0-5.8-1.1-7.9-3.5c-2.1-2.4-3.1-5.6-3.1-9.8c0-3.7,1-6.8,2.8-9.1c0.9-1.1,1.9-1.9,3.1-2.4c0.3-0.1,0.6-0.2,0.9-0.3
				C263.4,46.7,264.3,46.5,264.5,46.4z"/>
			<path class="st4" d="M380.7,70.8c0,1.9-1,3.8-3,5.6c-2,1.8-4,2.7-5.8,2.7c-1.7,0-3.7-0.8-5.9-2.4c-2.1-1.5-5.1-4.6-9.1-9.4
				c-2.8-3.4-4-4.3-4.4-4.6c-0.1,0.1-0.3,0.3-0.7,0.6c-0.7,0.6-1.4,1.3-2.1,2c-0.9,0.8-1,1.1-1,1.1c0,0.1-0.1,0.7-0.1,3.2
				c0,0.7,0.2,1.2,0.5,1.7c0.1,0.2,0.6,0.6,2.2,0.8c1.8,0.3,2.9,0.7,3.4,1.3c0.5,0.6,0.7,1.3,0.7,2.2c0,0.8-0.2,1.4-0.7,1.9
				s-1.3,0.7-2.6,0.7c-1,0-2.5-0.1-4.5-0.4c-1.8-0.2-3.3-0.4-4.2-0.4c-0.9,0-2.2,0.1-3.9,0.4c-1.8,0.2-3.2,0.4-4.2,0.4
				c-3.5,0-4.1-1.8-4.1-2.9c0-0.8,0.2-1.5,0.7-2.1s1.6-1,3.6-1.2c1.3-0.1,2.1-0.5,2.5-1c0.4-0.6,0.6-1.4,0.6-2.4v-53
				c0-0.7-0.2-1.3-0.5-1.8c-0.2-0.2-0.8-0.7-2.6-1.2c-2.4-0.6-3.1-1.1-3.5-1.5c-0.5-0.6-0.8-1.3-0.8-2.1c0-0.9,0.5-1.6,1.3-2.1
				c0.7-0.4,1.5-0.6,2.2-0.6c0.6,0,1.5,0.2,2.8,0.5c1.1,0.3,1.9,0.4,2.4,0.4c0.7,0,1.5-0.1,2.5-0.3c1.1-0.2,1.9-0.4,2.3-0.4
				c0.9,0,1.7,0.3,2.2,0.8c0.6,0.5,0.9,1.5,1.2,3.2c0.2,1.4,0.3,4.3,0.3,8.6v38.4l0,0c0.4-0.3,1.3-1.1,3.1-3l6.3-6.5
				c0,0-0.1-0.1-0.2-0.1c-1.6-0.6-1.8-1.8-1.8-2.4c0-1,0.2-1.7,0.7-2.2c0.5-0.6,1.4-0.8,2.7-0.8c0.7,0,1.8,0.1,3.1,0.2
				c1.2,0.1,2.2,0.2,2.9,0.2c0.8,0,2.1-0.1,3.9-0.3c1.9-0.2,3.2-0.3,4.1-0.3c1.1,0,2.1,0.2,3,0.7c1,0.5,1.5,1.4,1.5,2.5
				c0,1.3-0.8,2.9-4.6,2.9c-4.2,0-6.1,0.4-6.9,0.8c-1.2,0.5-2.6,1.6-4.2,3.2c-2.3,2.3-2.7,2.7-2.8,2.8c0,0-0.1,0.2-0.1,0.4
				c0,0.5,0.3,1.1,0.8,1.7l11.5,12.3c0.5,0.6,1.1,0.9,1.9,0.9c0.2,0,0.7-0.2,1.4-1.1c1.1-1.2,2-1.8,2.8-1.8c0.6,0,1.4,0.2,2.1,1.1
				C380.4,69.4,380.7,70.1,380.7,70.8z"/>
			<path class="st4" d="M22.4,48v17.1c0,3.4,0.2,4.5,0.3,4.8c0.1,0.4,0.3,0.4,0.4,0.4c0.6,0,1.6-0.3,3.3-1.5
				c2.3-1.7,3.2-1.9,3.7-1.9s1.3,0.2,1.9,1c0.5,0.6,0.7,1.3,0.7,2c0,1.3-1.3,2.8-4.2,5.2c-2.8,2.2-5.2,3.3-7.4,3.3
				c-4,0-8.7-2.1-8.7-12.1V47.9c-0.4,0-1,0-2.1,0c-1.6,0-2.7-0.2-3.3-0.8c-0.5-0.4-1.1-1.2-1.1-2.4s0.5-1.8,0.9-2.1
				c0.5-0.3,1.2-0.7,2.4-1c0.9-0.2,1.6-0.5,2.1-0.8s1.2-1,2.1-2.2c0.9-1,1.5-2.6,1.9-4.5c0.4-2.1,0.6-5.1,0.6-9
				c0-3.4,1.6-3.9,2.6-3.9c1.6,0,2.6,0.4,3.1,1.3c0.4,0.7,0.6,1.8,0.6,3.2v16.2c0.1,0,0.2,0,0.3,0h7.1c2,0,3.2,1,3.2,2.8
				c0,1.2-0.5,3.1-4.1,3.1h-6.5C22.4,47.8,22.4,47.9,22.4,48z"/>
			<path class="st4" d="M56.1,40.1c-6.7,0-12,1.9-15.7,5.5l-2.8,2.8l3.8-1.1c0.7-0.2,1.6-0.4,2.7-0.6c0.8-0.1,1.5-0.2,2.2-0.3
				c-3.9,1.3-7.1,3.1-8.9,4.2c-0.6,0.4-1.1,0.9-1.3,1.5c-0.9,2.2-1.4,4.7-1.4,7.3c0,5.4,2.1,9.9,6.3,13.5s8.9,5.4,14.1,5.4
				c6.6,0,11.9-1.8,15.8-5.3c4-3.5,6-8.2,6-13.8c0-5-2.1-9.5-6.2-13.3C66.6,42.1,61.7,40.1,56.1,40.1z M53.6,46.5
				c0.7-0.1,1.5-0.2,2.2-0.2c3.3,0,6,1.2,8.2,3.5c2.2,2.4,3.3,5.4,3.3,9.2c0,3.9-1,6.9-3.1,9.5c-2,2.4-4.6,3.6-8,3.6
				c-3.3,0-5.9-1.1-7.9-3.5c-2.1-2.4-3.2-5.6-3.2-9.8c0-3.7,1-6.8,2.8-9.1c0.7-0.8,1.5-1.5,2.4-2.1c0.6-0.3,1.2-0.6,1.9-0.8
				C52.7,46.8,53.4,46.6,53.6,46.5z"/>
			<path class="st4" d="M94.2,65.1c0,3.4,0.2,4.5,0.3,4.8c0.2,0.5,0.3,0.5,0.5,0.5c0.6,0,1.6-0.3,3.3-1.5c2.3-1.7,3.2-1.9,3.7-1.9
				s1.2,0.2,1.9,0.9c0.5,0.6,0.7,1.2,0.7,2.1c0,1.3-1.3,2.8-4.2,5.2c-2.8,2.2-5.2,3.3-7.4,3.3c-4,0-8.7-2.1-8.7-12.1V47.9
				c-0.4,0-1,0-2.1,0c-1.6,0-2.7-0.3-3.3-0.8c-0.5-0.4-1.1-1.1-1.1-2.4c0-1.2,0.5-1.8,1-2.1s1.2-0.6,2.4-1c0.9-0.2,1.6-0.5,2-0.8
				c0.3-0.2,1-0.8,2.1-2.2c0.9-1,1.5-2.6,1.9-4.5c0.4-2,0.6-5.1,0.6-9c0-3.4,1.6-3.9,2.6-3.9c0.6,0,2.4,0,3.1,1.3
				c0.4,0.7,0.6,1.7,0.6,3.2v16.2c0.1,0,0.2,0,0.3,0h7.2c2,0,3.1,1,3.1,2.8c0,0.9-0.4,3.1-4.1,3.1h-6.5L94.2,65.1L94.2,65.1z"/>
			<path class="st4" d="M148.2,71.5c-3.9-1.1-3.9-3.2-3.9-3.9V51.5c0-3.2-1.4-6-4.2-8.3c-2.8-2.2-6.4-3.4-10.8-3.4
				c-3.5,0-6.8,0.6-9.8,1.7c-3.3,1.2-5,2.9-5,4.9c0,1,0.4,1.8,1.2,2.4c0.7,0.5,1.6,0.8,2.6,0.8c0.6,0,1.3-0.3,2.4-1.1
				c2.5-1.6,5-2.5,7.6-2.5c1.9,0,3.4,0.5,4.5,1.6c1.1,1,1.6,2.3,1.6,4v2.7c-0.4-1-1.6-1.9-3.4-2.8c-2.2-1-4.2-1.5-6-1.5
				c-5.2,0-9.6,1.4-13,4.1c-3.4,2.8-5.2,6-5.2,9.7c0,3.3,0.8,6.2,2.4,8.5s3.7,4,6.3,5.1c2.6,1.1,5,1.6,7.1,1.6
				c4.3,0,8.4-1.2,12.2-3.5c0.1,0.5,0.5,0.9,1,1.3c0.6,0.4,1.3,0.7,1.9,0.7c0.5,0,1.2-0.1,2.5-0.5c1.1-0.3,1.9-0.4,2.6-0.4
				c0.5,0,1.3,0.1,2.3,0.4c1.2,0.3,2.1,0.5,2.7,0.5c0.8,0,1.5-0.2,2.1-0.6c1.1-0.7,1.2-1.5,1.2-2c0-1.1-0.3-2-0.9-2.4
				C149.8,72.1,149.1,71.8,148.2,71.5z M134.4,56.4v8.3c0,2.3-0.8,4-2.6,5.4s-3.7,2.1-5.9,2.1c-2.3,0-4.5-0.7-6.3-2.2
				c-1.8-1.4-2.6-3.5-2.6-6.2c0-2.3,0.7-4.1,2.3-5.5c1.6-1.4,3.5-2.1,5.9-2.1c1.1,0,2.2,0.3,3.3,0.8c1.8,0.9,2.5,1,2.9,1
				c0.8,0,1.5-0.2,2.1-0.6C133.9,57.1,134.2,56.8,134.4,56.4z"/>
			<path class="st4" d="M175.3,90.5c0.5,0.7,0.7,1.5,0.7,2.4s-0.3,3-3.4,3c-1,0-2.5-0.2-4.6-0.5c-1.8-0.3-3.3-0.5-4.3-0.5
				c-0.9,0-2.2,0.2-3.9,0.5c-1.9,0.3-3.2,0.5-4.2,0.5c-1.6,0-2.7-0.3-3.2-0.8c-0.6-0.6-0.9-1.3-0.9-2.3c0-0.9,0.2-1.6,0.6-2.2
				c0.5-0.7,1.6-1.2,3.6-1.6c1.3-0.2,2.2-0.7,2.6-1.5c0.4-0.9,0.7-2,0.7-3.2V18c0-1.3-0.2-2.4-0.7-3.3c-0.4-0.8-1.3-1.4-2.7-1.8
				c-2-0.6-3-1.2-3.5-1.9c-0.4-0.7-0.6-1.4-0.6-2.2c0-1,0.4-1.8,1.2-2.3c0.7-0.5,1.5-0.7,2.3-0.7c0.6,0,1.5,0.1,2.6,0.4
				c1,0.2,1.7,0.3,2.1,0.3c0.5,0,1.2-0.1,2.3-0.3c1.2-0.3,2.1-0.4,2.7-0.4c1.7,0,2.7,0.8,3.2,1.5c0.6,0.9,0.9,2.3,0.9,4.3v73.8
				c0,0.9,0.2,1.7,0.6,2.3c0.2,0.4,0.8,0.9,2.4,1.2C173.7,89.2,174.8,89.7,175.3,90.5L175.3,90.5z"/>
			<path class="st4" d="M243.4,61.1c0,0.6,0,1.1-0.1,1.7c-0.1,0.8-0.2,1.6-0.4,2.4c-0.8,3.5-2.7,6.5-5.7,9c-4,3.3-9,5-14.6,5
				c-2.9,0-6.6-1.1-11-3.2l-1-0.5v0.1c-0.3,0.6-0.6,1.1-1,1.4c-0.5,0.4-1.2,0.5-2.2,0.5c-0.7,0-1.7-0.1-2.9-0.4s-2.1-0.4-2.7-0.4
				c-0.6,0-1.6,0.1-2.8,0.4c-1.3,0.3-2.3,0.4-3.1,0.4s-1.5-0.2-2.2-0.5c-1.1-0.5-1.7-1.5-1.7-2.6c0-0.7,0.3-1.3,0.8-1.8
				c0.4-0.4,1.2-0.7,4-1.2c1.7-0.3,2.9-0.9,3.4-1.8c0.6-0.9,0.9-2,0.9-3.3V17c0-2.3-0.5-3.9-1.6-4.8c-0.6-0.5-1.6-0.8-3.1-1
				c-2.5-0.3-3.2-0.8-3.6-1.2c-0.5-0.6-0.8-1.2-0.8-2c0-0.6,0.3-1.5,1.5-2.2c0.8-0.4,1.6-0.6,2.4-0.6s1.8,0.1,3.2,0.4
				c1.2,0.3,2.2,0.4,2.7,0.4c0.4,0,1.1-0.1,2.4-0.3c1.2-0.2,2-0.3,2.7-0.3c1.3,0,2.3,0.4,3,1.1c0.6,0.7,1,1.9,1,3.6v56.1
				c0,1.6,1.1,3.1,3.4,4.4c2.4,1.5,4.7,2.2,6.8,2.2c2.4,0,5-1,7.8-3c2.7-1.9,4-5.1,4-9.7c0-3.5-1.1-6.6-3.2-9.1
				c-2.1-2.5-4.9-3.7-8.3-3.7c-1.3,0-2.6,0.3-3.9,1c-2.2,1.1-2.9,1.2-3.4,1.2c-0.6,0-1.3-0.2-1.9-0.7c-0.7-0.5-1-1.1-1-1.8
				c0-1.9,1.5-3.5,4.5-4.7c2.7-1.1,5.1-1.7,7.3-1.7c5.8,0,10.7,2,14.6,5.9l0,0c2.4,2.4,4,5.2,5,8.3c0.2,0.8,0.4,1.7,0.6,2.5
				C243.4,58.6,243.4,59.8,243.4,61.1z"/>
		</g>
		<g>
			<path class="st4" d="M400.1,32c0,1.6-0.7,3-1.9,4.1c-1.2,1.1-2.7,1.6-4.4,1.6s-3.2-0.6-4.4-1.8c-1.2-1.2-1.9-2.6-1.9-4.3
				c0-1.6,0.6-3,1.9-4.2c1.2-1.2,2.7-1.8,4.3-1.8c1.7,0,3.2,0.6,4.5,1.9C399.4,28.8,400.1,30.3,400.1,32z"/>
			<path class="st4" d="M450.7,74.5c0,1.6-1,2.5-2.8,2.5c-0.2,0-1.1,0-3-0.2c-4-0.3-6.8-0.2-8.9,0.2c-2,0.4-2.6,0.4-2.7,0.4
				c-0.8,0-1.6-0.3-2.2-0.8c-0.9-0.7-1.1-1.6-1.1-2.2c0-0.7,0.3-1.4,0.9-1.9s1.3-0.8,2.1-0.8c0.8,0,1.5-0.2,2.1-0.7
				c0.3-0.2,0.8-0.7,0.8-1.9c0-7.8,0.1-12.5,0.2-14.3s0.2-2.8,0.2-3c0-1.9-0.7-2.7-2.4-2.7c-0.4,0-1.4,0.3-3.6,2
				c-2.1,1.7-3.5,2.5-4.5,2.5c-0.5,0-1-0.3-1.6-0.8c-0.1-0.1-0.2-0.2-0.2-0.3c0,1,0,2,0,3l-0.3,13.7c0,0.8,0.1,1.1,0.1,1.3
				c0.1,0.1,0.3,0.2,0.8,0.5s1.2,0.5,2,0.7c1.2,0.3,2,0.6,2.4,1.2l0,0c0.4,0.5,0.6,1.1,0.6,1.8c0,0.8-0.3,2.6-3.5,2.6
				c-1.2,0-2.5-0.1-3.7-0.3c-1.1-0.2-2.3-0.3-3.4-0.3c-0.9,0-2.1,0.1-3.6,0.3c-1.6,0.2-2.7,0.3-3.5,0.3c-3.1,0-3.5-2-3.5-2.8
				s0.2-1.4,0.7-1.9s1.3-0.8,2.6-0.9c1.1-0.1,1.4-0.2,1.4-0.2c0.7-0.8,1-1.3,1.1-1.6c0.1-0.2,0.2-1,0.2-3.2v-16c0-1-0.2-1.6-0.5-2
				c-0.1-0.2-0.6-0.6-2.3-0.9c-2.7-0.5-3-2.1-3-3c0-0.8,0.4-1.5,1.1-2.1s1.6-0.9,2.7-0.9c0.5,0,1.1,0.1,2.1,0.4
				c0.8,0.2,1.4,0.3,1.9,0.3c0.2,0,0.8,0,2.3-0.3c0.9-0.1,2-0.3,2.5-0.3c1,0,1.8,0.5,2.2,1.4c0.3,0.6,0.5,1.8,0.5,3.6
				c0,0.8,0,1.6,0,2.5c0.7-1.2,2.1-2.6,4.3-4.3c3.1-2.4,6.2-3.7,9.2-3.7c1.9,0,3.5,0.5,4.9,1.4c1.4,1,2.3,2.2,2.8,3.7
				c0.4,1.4,0.6,3.2,0.6,5.7v3.1v13.9c0,1.6,0.3,1.9,0.4,2c0.2,0.2,0.7,0.5,2,0.8C450.3,72.4,450.7,73.7,450.7,74.5z"/>
			<path class="st4" d="M404.4,74.8c0,1-0.5,2.6-3.8,2.6c-0.9,0-2.2-0.1-3.8-0.3c-1.6-0.2-2.8-0.3-3.5-0.3s-1.8,0.1-3.2,0.4
				c-1.6,0.3-2.7,0.4-3.5,0.4c-0.7,0-1.4-0.2-2-0.5c-1-0.6-1.7-1.7-1.7-2.8c0-0.7,0.2-1.3,0.7-1.8s1.3-0.8,2.8-1.1
				c1-0.2,1.6-0.4,1.9-0.8c0.1-0.1,0.5-0.7,0.5-3.6V50.5c0-1.4-0.3-1.9-0.5-2c-0.5-0.3-1.2-0.6-2.1-0.8c-1.4-0.3-2.3-0.7-2.7-1.3
				c-0.4-0.6-0.6-1.2-0.6-1.9c0-0.9,0.4-1.7,1.1-2.2c0.6-0.5,1.4-0.8,2.3-0.8c0.6,0,1.5,0.1,2.6,0.4c1.2,0.3,1.8,0.3,2,0.3
				c0.5,0,1.3-0.1,2.4-0.3c1.2-0.2,2.1-0.3,2.7-0.3c1,0,2.8,0.5,2.8,4c0,0.3,0,0.8,0,1.4c0,0.5,0,0.8,0,1v20.3
				c0,1.8,0.4,2.2,0.5,2.4c0.4,0.4,1.1,0.6,1.8,0.7c1.2,0.2,2,0.4,2.5,0.8C404,72.7,404.4,73.6,404.4,74.8z"/>
			<path class="st4" d="M494.3,69.4c-2-2.8-4.5-5-7.7-6.5l-0.2-0.2l0.3-0.4c3.2-2.2,4.7-5,4.7-8.5c0-3.3-1.1-6-3.4-8.2
				s-5.3-3.5-9.2-4c-0.4,0-0.6-0.2-0.6-0.5s0.5-0.9,1.6-1.7c1-0.9,2.4-1.3,3.9-1.3c0.3,0,0.7,0,1.2,0.1s0.9,0.2,1.2,0.2
				c1.4,0,2.6-0.3,3.5-1s1.3-1.6,1.3-2.7c0-1.9-0.9-2.8-2.7-2.8c-3.1,0-5.3,0.2-6.6,0.6c-1.3,0.4-2.7,1.5-4.3,3.3
				c-1.6,1.8-2.7,3.5-3.4,5c-0.2,0.5-0.6,0.7-1.1,0.8c-4.2,0.5-7.6,1.8-10.3,3.8c-2.7,2-4,4.6-4,7.7c0,1.9,0.5,3.7,1.4,5.3
				s2.2,2.9,3.8,3.9l0.4,0.5l-0.3,0.3c-3.3,1.4-5.9,3.4-7.9,6.1s-3,5.6-3,8.7c0,5.2,2.1,9.5,6.5,12.8c4.3,3.2,9.5,4.9,15.7,4.9
				c6,0,11.2-1.6,15.6-4.7c4.4-3.2,6.6-7.2,6.6-12.1C497.2,75.2,496.2,72.2,494.3,69.4z M467.2,49.3c0.7-1.3,1.7-2.2,2.7-2.8
				c1.1-0.6,1.8-0.8,2.3-0.8c0.3,0,0.4,0.2,0.4,0.5c0,1.2,0.5,1.9,1.7,1.9s2-0.7,2.4-2.2c0.1-0.3,0.2-0.4,0.4-0.4
				c0.4,0,1.3,0.3,2.7,0.9c1.3,0.6,2.4,1.6,3.2,2.8c0.8,1.3,1.2,2.6,1.2,3.9c0,2.4-0.9,4.5-2.6,6.2s-3.8,2.6-6.3,2.6
				c-2.4,0-4.6-0.8-6.4-2.4c-1.9-1.6-2.8-3.5-2.8-5.8C466.1,52,466.5,50.6,467.2,49.3z M485.3,87.6c-2.8,2.4-6.3,3.6-10.5,3.6
				c-3.6,0-6.9-1.2-9.9-3.5c-3-2.4-4.5-5.5-4.5-9.3c0-4,1.3-7.2,3.8-9.5c2.5-2.3,6.1-3.5,10.7-3.5c4.2,0,7.7,1.2,10.5,3.5
				c2.8,2.3,4.1,5.4,4.1,9.3C489.6,82.1,488.2,85.2,485.3,87.6z"/>
		</g>
	</g>
</g>
<g id="Layer_1_copy_1_">
	<path class="st5" d="M8.1,5.7h489c1.1,0,2,0.9,2,2v86c0,1.1-0.9,2-2,2H8.1c-1.1,0-2-0.9-2-2v-86C6.1,6.6,7,5.7,8.1,5.7z"/>
	<g>
		<g>
			<path class="st6" d="M326.1,45.9c-4.1-3.8-9-5.7-14.6-5.7c-6.7,0-12,1.9-15.7,5.5l-2.8,2.8l3.8-1.1c0.7-0.2,1.6-0.4,2.7-0.6
				c0.8-0.1,1.5-0.2,2.2-0.3c-3.9,1.3-7.1,3.1-8.9,4.2c-0.6,0.4-1.1,0.9-1.3,1.5c-0.9,2.2-1.4,4.7-1.4,7.3c0,5.4,2.1,9.9,6.3,13.5
				c4.2,3.6,8.9,5.4,14.1,5.4c6.6,0,11.9-1.8,15.8-5.3c4-3.5,6-8.2,6-13.8c0-2.5-0.5-4.9-1.6-7.1C329.7,49.9,328.2,47.8,326.1,45.9z
				 M308.9,46.5c0.7-0.1,1.5-0.2,2.2-0.2c3.4,0,6,1.2,8.2,3.5c2.2,2.4,3.3,5.4,3.3,9.2c0,3.9-1,6.9-3.1,9.5c-2,2.4-4.6,3.6-8,3.6
				c-3.3,0-5.8-1.1-7.9-3.5s-3.1-5.6-3.1-9.8c0-3.7,1-6.8,2.8-9.1c0.7-0.8,1.4-1.5,2.3-2c0.6-0.4,1.3-0.6,2-0.8
				C308.2,46.7,308.8,46.6,308.9,46.5z"/>
			<path class="st6" d="M281.7,45.8c-4.1-3.8-9-5.7-14.6-5.7c-6.7,0-12,1.9-15.7,5.5l-2.8,2.8l3.8-1.1c0.7-0.2,1.6-0.4,2.7-0.6
				c0.8-0.1,1.5-0.2,2.2-0.3c-3.9,1.3-7.1,3.1-8.9,4.2c-0.6,0.4-1.1,0.9-1.3,1.5c-0.9,2.2-1.4,4.7-1.4,7.3c0,5.4,2.1,9.9,6.3,13.5
				s8.9,5.4,14.1,5.4c6.6,0,11.9-1.8,15.8-5.3c4-3.5,6-8.2,6-13.8c0-2.5-0.5-4.9-1.6-7.1C285.3,49.8,283.8,47.7,281.7,45.8z
				 M264.5,46.4c0.7-0.1,1.5-0.2,2.2-0.2c3.4,0,6,1.2,8.2,3.5c2.2,2.4,3.3,5.4,3.3,9.2c0,3.9-1,6.9-3.1,9.5c-2,2.4-4.6,3.6-8,3.6
				c-3.3,0-5.8-1.1-7.9-3.5c-2.1-2.4-3.1-5.6-3.1-9.8c0-3.7,1-6.8,2.8-9.1c0.9-1.1,1.9-1.9,3.1-2.4c0.3-0.1,0.6-0.2,0.9-0.3
				C263.4,46.7,264.3,46.5,264.5,46.4z"/>
			<path class="st6" d="M380.7,70.8c0,1.9-1,3.8-3,5.6c-2,1.8-4,2.7-5.8,2.7c-1.7,0-3.7-0.8-5.9-2.4c-2.1-1.5-5.1-4.6-9.1-9.4
				c-2.8-3.4-4-4.3-4.4-4.6c-0.1,0.1-0.3,0.3-0.7,0.6c-0.7,0.6-1.4,1.3-2.1,2c-0.9,0.8-1,1.1-1,1.1c0,0.1-0.1,0.7-0.1,3.2
				c0,0.7,0.2,1.2,0.5,1.7c0.1,0.2,0.6,0.6,2.2,0.8c1.8,0.3,2.9,0.7,3.4,1.3c0.5,0.6,0.7,1.3,0.7,2.2c0,0.8-0.2,1.4-0.7,1.9
				s-1.3,0.7-2.6,0.7c-1,0-2.5-0.1-4.5-0.4c-1.8-0.2-3.3-0.4-4.2-0.4c-0.9,0-2.2,0.1-3.9,0.4c-1.8,0.2-3.2,0.4-4.2,0.4
				c-3.5,0-4.1-1.8-4.1-2.9c0-0.8,0.2-1.5,0.7-2.1s1.6-1,3.6-1.2c1.3-0.1,2.1-0.5,2.5-1c0.4-0.6,0.6-1.4,0.6-2.4v-53
				c0-0.7-0.2-1.3-0.5-1.8c-0.2-0.2-0.8-0.7-2.6-1.2c-2.4-0.6-3.1-1.1-3.5-1.5c-0.5-0.6-0.8-1.3-0.8-2.1c0-0.9,0.5-1.6,1.3-2.1
				c0.7-0.4,1.5-0.6,2.2-0.6c0.6,0,1.5,0.2,2.8,0.5c1.1,0.3,1.9,0.4,2.4,0.4c0.7,0,1.5-0.1,2.5-0.3c1.1-0.2,1.9-0.4,2.3-0.4
				c0.9,0,1.7,0.3,2.2,0.8c0.6,0.5,0.9,1.5,1.2,3.2c0.2,1.4,0.3,4.3,0.3,8.6v38.4l0,0c0.4-0.3,1.3-1.1,3.1-3l6.3-6.5
				c0,0-0.1-0.1-0.2-0.1c-1.6-0.6-1.8-1.8-1.8-2.4c0-1,0.2-1.7,0.7-2.2c0.5-0.6,1.4-0.8,2.7-0.8c0.7,0,1.8,0.1,3.1,0.2
				c1.2,0.1,2.2,0.2,2.9,0.2c0.8,0,2.1-0.1,3.9-0.3c1.9-0.2,3.2-0.3,4.1-0.3c1.1,0,2.1,0.2,3,0.7c1,0.5,1.5,1.4,1.5,2.5
				c0,1.3-0.8,2.9-4.6,2.9c-4.2,0-6.1,0.4-6.9,0.8c-1.2,0.5-2.6,1.6-4.2,3.2c-2.3,2.3-2.7,2.7-2.8,2.8c0,0-0.1,0.2-0.1,0.4
				c0,0.5,0.3,1.1,0.8,1.7l11.5,12.3c0.5,0.6,1.1,0.9,1.9,0.9c0.2,0,0.7-0.2,1.4-1.1c1.1-1.2,2-1.8,2.8-1.8c0.6,0,1.4,0.2,2.1,1.1
				C380.4,69.4,380.7,70.1,380.7,70.8z"/>
			<path class="st6" d="M22.4,48v17.1c0,3.4,0.2,4.5,0.3,4.8c0.1,0.4,0.3,0.4,0.4,0.4c0.6,0,1.6-0.3,3.3-1.5
				c2.3-1.7,3.2-1.9,3.7-1.9s1.3,0.2,1.9,1c0.5,0.6,0.7,1.3,0.7,2c0,1.3-1.3,2.8-4.2,5.2c-2.8,2.2-5.2,3.3-7.4,3.3
				c-4,0-8.7-2.1-8.7-12.1V47.9c-0.4,0-1,0-2.1,0c-1.6,0-2.7-0.2-3.3-0.8c-0.5-0.4-1.1-1.2-1.1-2.4s0.5-1.8,0.9-2.1
				c0.5-0.3,1.2-0.7,2.4-1c0.9-0.2,1.6-0.5,2.1-0.8s1.2-1,2.1-2.2c0.9-1,1.5-2.6,1.9-4.5c0.4-2.1,0.6-5.1,0.6-9
				c0-3.4,1.6-3.9,2.6-3.9c1.6,0,2.6,0.4,3.1,1.3c0.4,0.7,0.6,1.8,0.6,3.2v16.2c0.1,0,0.2,0,0.3,0h7.1c2,0,3.2,1,3.2,2.8
				c0,1.2-0.5,3.1-4.1,3.1h-6.5C22.4,47.8,22.4,47.9,22.4,48z"/>
			<path class="st6" d="M56.1,40.1c-6.7,0-12,1.9-15.7,5.5l-2.8,2.8l3.8-1.1c0.7-0.2,1.6-0.4,2.7-0.6c0.8-0.1,1.5-0.2,2.2-0.3
				c-3.9,1.3-7.1,3.1-8.9,4.2c-0.6,0.4-1.1,0.9-1.3,1.5c-0.9,2.2-1.4,4.7-1.4,7.3c0,5.4,2.1,9.9,6.3,13.5s8.9,5.4,14.1,5.4
				c6.6,0,11.9-1.8,15.8-5.3c4-3.5,6-8.2,6-13.8c0-5-2.1-9.5-6.2-13.3C66.6,42.1,61.7,40.1,56.1,40.1z M53.6,46.5
				c0.7-0.1,1.5-0.2,2.2-0.2c3.3,0,6,1.2,8.2,3.5c2.2,2.4,3.3,5.4,3.3,9.2c0,3.9-1,6.9-3.1,9.5c-2,2.4-4.6,3.6-8,3.6
				c-3.3,0-5.9-1.1-7.9-3.5c-2.1-2.4-3.2-5.6-3.2-9.8c0-3.7,1-6.8,2.8-9.1c0.7-0.8,1.5-1.5,2.4-2.1c0.6-0.3,1.2-0.6,1.9-0.8
				C52.7,46.8,53.4,46.6,53.6,46.5z"/>
			<path class="st6" d="M94.2,65.1c0,3.4,0.2,4.5,0.3,4.8c0.2,0.5,0.3,0.5,0.5,0.5c0.6,0,1.6-0.3,3.3-1.5c2.3-1.7,3.2-1.9,3.7-1.9
				s1.2,0.2,1.9,0.9c0.5,0.6,0.7,1.2,0.7,2.1c0,1.3-1.3,2.8-4.2,5.2c-2.8,2.2-5.2,3.3-7.4,3.3c-4,0-8.7-2.1-8.7-12.1V47.9
				c-0.4,0-1,0-2.1,0c-1.6,0-2.7-0.3-3.3-0.8c-0.5-0.4-1.1-1.1-1.1-2.4c0-1.2,0.5-1.8,1-2.1s1.2-0.6,2.4-1c0.9-0.2,1.6-0.5,2-0.8
				c0.3-0.2,1-0.8,2.1-2.2c0.9-1,1.5-2.6,1.9-4.5c0.4-2,0.6-5.1,0.6-9c0-3.4,1.6-3.9,2.6-3.9c0.6,0,2.4,0,3.1,1.3
				c0.4,0.7,0.6,1.7,0.6,3.2v16.2c0.1,0,0.2,0,0.3,0h7.2c2,0,3.1,1,3.1,2.8c0,0.9-0.4,3.1-4.1,3.1h-6.5L94.2,65.1L94.2,65.1z"/>
			<path class="st6" d="M148.2,71.5c-3.9-1.1-3.9-3.2-3.9-3.9V51.5c0-3.2-1.4-6-4.2-8.3c-2.8-2.2-6.4-3.4-10.8-3.4
				c-3.5,0-6.8,0.6-9.8,1.7c-3.3,1.2-5,2.9-5,4.9c0,1,0.4,1.8,1.2,2.4c0.7,0.5,1.6,0.8,2.6,0.8c0.6,0,1.3-0.3,2.4-1.1
				c2.5-1.6,5-2.5,7.6-2.5c1.9,0,3.4,0.5,4.5,1.6c1.1,1,1.6,2.3,1.6,4v2.7c-0.4-1-1.6-1.9-3.4-2.8c-2.2-1-4.2-1.5-6-1.5
				c-5.2,0-9.6,1.4-13,4.1c-3.4,2.8-5.2,6-5.2,9.7c0,3.3,0.8,6.2,2.4,8.5s3.7,4,6.3,5.1c2.6,1.1,5,1.6,7.1,1.6
				c4.3,0,8.4-1.2,12.2-3.5c0.1,0.5,0.5,0.9,1,1.3c0.6,0.4,1.3,0.7,1.9,0.7c0.5,0,1.2-0.1,2.5-0.5c1.1-0.3,1.9-0.4,2.6-0.4
				c0.5,0,1.3,0.1,2.3,0.4c1.2,0.3,2.1,0.5,2.7,0.5c0.8,0,1.5-0.2,2.1-0.6c1.1-0.7,1.2-1.5,1.2-2c0-1.1-0.3-2-0.9-2.4
				C149.8,72.1,149.1,71.8,148.2,71.5z M134.4,56.4v8.3c0,2.3-0.8,4-2.6,5.4s-3.7,2.1-5.9,2.1c-2.3,0-4.5-0.7-6.3-2.2
				c-1.8-1.4-2.6-3.5-2.6-6.2c0-2.3,0.7-4.1,2.3-5.5c1.6-1.4,3.5-2.1,5.9-2.1c1.1,0,2.2,0.3,3.3,0.8c1.8,0.9,2.5,1,2.9,1
				c0.8,0,1.5-0.2,2.1-0.6C133.9,57.1,134.2,56.8,134.4,56.4z"/>
			<path class="st6" d="M175.3,90.5c0.5,0.7,0.7,1.5,0.7,2.4s-0.3,3-3.4,3c-1,0-2.5-0.2-4.6-0.5c-1.8-0.3-3.3-0.5-4.3-0.5
				c-0.9,0-2.2,0.2-3.9,0.5c-1.9,0.3-3.2,0.5-4.2,0.5c-1.6,0-2.7-0.3-3.2-0.8c-0.6-0.6-0.9-1.3-0.9-2.3c0-0.9,0.2-1.6,0.6-2.2
				c0.5-0.7,1.6-1.2,3.6-1.6c1.3-0.2,2.2-0.7,2.6-1.5c0.4-0.9,0.7-2,0.7-3.2V18c0-1.3-0.2-2.4-0.7-3.3c-0.4-0.8-1.3-1.4-2.7-1.8
				c-2-0.6-3-1.2-3.5-1.9c-0.4-0.7-0.6-1.4-0.6-2.2c0-1,0.4-1.8,1.2-2.3c0.7-0.5,1.5-0.7,2.3-0.7c0.6,0,1.5,0.1,2.6,0.4
				c1,0.2,1.7,0.3,2.1,0.3c0.5,0,1.2-0.1,2.3-0.3c1.2-0.3,2.1-0.4,2.7-0.4c1.7,0,2.7,0.8,3.2,1.5c0.6,0.9,0.9,2.3,0.9,4.3v73.8
				c0,0.9,0.2,1.7,0.6,2.3c0.2,0.4,0.8,0.9,2.4,1.2C173.7,89.2,174.8,89.7,175.3,90.5L175.3,90.5z"/>
			<path class="st6" d="M243.4,61.1c0,0.6,0,1.1-0.1,1.7c-0.1,0.8-0.2,1.6-0.4,2.4c-0.8,3.5-2.7,6.5-5.7,9c-4,3.3-9,5-14.6,5
				c-2.9,0-6.6-1.1-11-3.2l-1-0.5v0.1c-0.3,0.6-0.6,1.1-1,1.4c-0.5,0.4-1.2,0.5-2.2,0.5c-0.7,0-1.7-0.1-2.9-0.4s-2.1-0.4-2.7-0.4
				c-0.6,0-1.6,0.1-2.8,0.4c-1.3,0.3-2.3,0.4-3.1,0.4s-1.5-0.2-2.2-0.5c-1.1-0.5-1.7-1.5-1.7-2.6c0-0.7,0.3-1.3,0.8-1.8
				c0.4-0.4,1.2-0.7,4-1.2c1.7-0.3,2.9-0.9,3.4-1.8c0.6-0.9,0.9-2,0.9-3.3V17c0-2.3-0.5-3.9-1.6-4.8c-0.6-0.5-1.6-0.8-3.1-1
				c-2.5-0.3-3.2-0.8-3.6-1.2c-0.5-0.6-0.8-1.2-0.8-2c0-0.6,0.3-1.5,1.5-2.2c0.8-0.4,1.6-0.6,2.4-0.6s1.8,0.1,3.2,0.4
				c1.2,0.3,2.2,0.4,2.7,0.4c0.4,0,1.1-0.1,2.4-0.3c1.2-0.2,2-0.3,2.7-0.3c1.3,0,2.3,0.4,3,1.1c0.6,0.7,1,1.9,1,3.6v56.1
				c0,1.6,1.1,3.1,3.4,4.4c2.4,1.5,4.7,2.2,6.8,2.2c2.4,0,5-1,7.8-3c2.7-1.9,4-5.1,4-9.7c0-3.5-1.1-6.6-3.2-9.1
				c-2.1-2.5-4.9-3.7-8.3-3.7c-1.3,0-2.6,0.3-3.9,1c-2.2,1.1-2.9,1.2-3.4,1.2c-0.6,0-1.3-0.2-1.9-0.7c-0.7-0.5-1-1.1-1-1.8
				c0-1.9,1.5-3.5,4.5-4.7c2.7-1.1,5.1-1.7,7.3-1.7c5.8,0,10.7,2,14.6,5.9l0,0c2.4,2.4,4,5.2,5,8.3c0.2,0.8,0.4,1.7,0.6,2.5
				C243.4,58.6,243.4,59.8,243.4,61.1z"/>
		</g>
		<g>
			<path class="st6" d="M400.1,32c0,1.6-0.7,3-1.9,4.1c-1.2,1.1-2.7,1.6-4.4,1.6s-3.2-0.6-4.4-1.8c-1.2-1.2-1.9-2.6-1.9-4.3
				c0-1.6,0.6-3,1.9-4.2c1.2-1.2,2.7-1.8,4.3-1.8c1.7,0,3.2,0.6,4.5,1.9C399.4,28.8,400.1,30.3,400.1,32z"/>
			<path class="st6" d="M450.7,74.5c0,1.6-1,2.5-2.8,2.5c-0.2,0-1.1,0-3-0.2c-4-0.3-6.8-0.2-8.9,0.2c-2,0.4-2.6,0.4-2.7,0.4
				c-0.8,0-1.6-0.3-2.2-0.8c-0.9-0.7-1.1-1.6-1.1-2.2c0-0.7,0.3-1.4,0.9-1.9s1.3-0.8,2.1-0.8c0.8,0,1.5-0.2,2.1-0.7
				c0.3-0.2,0.8-0.7,0.8-1.9c0-7.8,0.1-12.5,0.2-14.3s0.2-2.8,0.2-3c0-1.9-0.7-2.7-2.4-2.7c-0.4,0-1.4,0.3-3.6,2
				c-2.1,1.7-3.5,2.5-4.5,2.5c-0.5,0-1-0.3-1.6-0.8c-0.1-0.1-0.2-0.2-0.2-0.3c0,1,0,2,0,3l-0.3,13.7c0,0.8,0.1,1.1,0.1,1.3
				c0.1,0.1,0.3,0.2,0.8,0.5s1.2,0.5,2,0.7c1.2,0.3,2,0.6,2.4,1.2l0,0c0.4,0.5,0.6,1.1,0.6,1.8c0,0.8-0.3,2.6-3.5,2.6
				c-1.2,0-2.5-0.1-3.7-0.3c-1.1-0.2-2.3-0.3-3.4-0.3c-0.9,0-2.1,0.1-3.6,0.3c-1.6,0.2-2.7,0.3-3.5,0.3c-3.1,0-3.5-2-3.5-2.8
				s0.2-1.4,0.7-1.9s1.3-0.8,2.6-0.9c1.1-0.1,1.4-0.2,1.4-0.2c0.7-0.8,1-1.3,1.1-1.6c0.1-0.2,0.2-1,0.2-3.2v-16c0-1-0.2-1.6-0.5-2
				c-0.1-0.2-0.6-0.6-2.3-0.9c-2.7-0.5-3-2.1-3-3c0-0.8,0.4-1.5,1.1-2.1s1.6-0.9,2.7-0.9c0.5,0,1.1,0.1,2.1,0.4
				c0.8,0.2,1.4,0.3,1.9,0.3c0.2,0,0.8,0,2.3-0.3c0.9-0.1,2-0.3,2.5-0.3c1,0,1.8,0.5,2.2,1.4c0.3,0.6,0.5,1.8,0.5,3.6
				c0,0.8,0,1.6,0,2.5c0.7-1.2,2.1-2.6,4.3-4.3c3.1-2.4,6.2-3.7,9.2-3.7c1.9,0,3.5,0.5,4.9,1.4c1.4,1,2.3,2.2,2.8,3.7
				c0.4,1.4,0.6,3.2,0.6,5.7v3.1v13.9c0,1.6,0.3,1.9,0.4,2c0.2,0.2,0.7,0.5,2,0.8C450.3,72.4,450.7,73.7,450.7,74.5z"/>
			<path class="st6" d="M404.4,74.8c0,1-0.5,2.6-3.8,2.6c-0.9,0-2.2-0.1-3.8-0.3c-1.6-0.2-2.8-0.3-3.5-0.3s-1.8,0.1-3.2,0.4
				c-1.6,0.3-2.7,0.4-3.5,0.4c-0.7,0-1.4-0.2-2-0.5c-1-0.6-1.7-1.7-1.7-2.8c0-0.7,0.2-1.3,0.7-1.8s1.3-0.8,2.8-1.1
				c1-0.2,1.6-0.4,1.9-0.8c0.1-0.1,0.5-0.7,0.5-3.6V50.5c0-1.4-0.3-1.9-0.5-2c-0.5-0.3-1.2-0.6-2.1-0.8c-1.4-0.3-2.3-0.7-2.7-1.3
				c-0.4-0.6-0.6-1.2-0.6-1.9c0-0.9,0.4-1.7,1.1-2.2c0.6-0.5,1.4-0.8,2.3-0.8c0.6,0,1.5,0.1,2.6,0.4c1.2,0.3,1.8,0.3,2,0.3
				c0.5,0,1.3-0.1,2.4-0.3c1.2-0.2,2.1-0.3,2.7-0.3c1,0,2.8,0.5,2.8,4c0,0.3,0,0.8,0,1.4c0,0.5,0,0.8,0,1v20.3
				c0,1.8,0.4,2.2,0.5,2.4c0.4,0.4,1.1,0.6,1.8,0.7c1.2,0.2,2,0.4,2.5,0.8C404,72.7,404.4,73.6,404.4,74.8z"/>
			<path class="st6" d="M494.3,69.4c-2-2.8-4.5-5-7.7-6.5l-0.2-0.2l0.3-0.4c3.2-2.2,4.7-5,4.7-8.5c0-3.3-1.1-6-3.4-8.2
				s-5.3-3.5-9.2-4c-0.4,0-0.6-0.2-0.6-0.5s0.5-0.9,1.6-1.7c1-0.9,2.4-1.3,3.9-1.3c0.3,0,0.7,0,1.2,0.1s0.9,0.2,1.2,0.2
				c1.4,0,2.6-0.3,3.5-1s1.3-1.6,1.3-2.7c0-1.9-0.9-2.8-2.7-2.8c-3.1,0-5.3,0.2-6.6,0.6c-1.3,0.4-2.7,1.5-4.3,3.3
				c-1.6,1.8-2.7,3.5-3.4,5c-0.2,0.5-0.6,0.7-1.1,0.8c-4.2,0.5-7.6,1.8-10.3,3.8c-2.7,2-4,4.6-4,7.7c0,1.9,0.5,3.7,1.4,5.3
				s2.2,2.9,3.8,3.9l0.4,0.5l-0.3,0.3c-3.3,1.4-5.9,3.4-7.9,6.1s-3,5.6-3,8.7c0,5.2,2.1,9.5,6.5,12.8c4.3,3.2,9.5,4.9,15.7,4.9
				c6,0,11.2-1.6,15.6-4.7c4.4-3.2,6.6-7.2,6.6-12.1C497.2,75.2,496.2,72.2,494.3,69.4z M467.2,49.3c0.7-1.3,1.7-2.2,2.7-2.8
				c1.1-0.6,1.8-0.8,2.3-0.8c0.3,0,0.4,0.2,0.4,0.5c0,1.2,0.5,1.9,1.7,1.9s2-0.7,2.4-2.2c0.1-0.3,0.2-0.4,0.4-0.4
				c0.4,0,1.3,0.3,2.7,0.9c1.3,0.6,2.4,1.6,3.2,2.8c0.8,1.3,1.2,2.6,1.2,3.9c0,2.4-0.9,4.5-2.6,6.2s-3.8,2.6-6.3,2.6
				c-2.4,0-4.6-0.8-6.4-2.4c-1.9-1.6-2.8-3.5-2.8-5.8C466.1,52,466.5,50.6,467.2,49.3z M485.3,87.6c-2.8,2.4-6.3,3.6-10.5,3.6
				c-3.6,0-6.9-1.2-9.9-3.5c-3-2.4-4.5-5.5-4.5-9.3c0-4,1.3-7.2,3.8-9.5c2.5-2.3,6.1-3.5,10.7-3.5c4.2,0,7.7,1.2,10.5,3.5
				c2.8,2.3,4.1,5.4,4.1,9.3C489.6,82.1,488.2,85.2,485.3,87.6z"/>
		</g>
	</g>
</g>
</svg>
