<?xml version="1.0" encoding="utf-8"?>
<!-- Generator: Adobe Illustrator 25.0.0, SVG Export Plug-In . SVG Version: 6.00 Build 0)  -->
<svg version="1.1" xmlns="http://www.w3.org/2000/svg" xmlns:xlink="http://www.w3.org/1999/xlink" x="0px" y="0px"
	 viewBox="0 0 495 93" style="enable-background:new 0 0 495 93;" xml:space="preserve">
<style type="text/css">
	.st0{display:none;}
	.st1{display:inline;}
	.st2{fill:#FF0000;}
	.st3{display:none;fill:none;stroke:#FF0000;stroke-width:3;stroke-miterlimit:10;}
	.st4{fill:#00748B;}
</style>
<g id="Layer_1" class="st0">
	<path class="st1" d="M2,0h491c1.1,0,2,0.9,2,2v89c0,1.1-0.9,2-2,2H2c-1.1,0-2-0.9-2-2V2C0,0.9,0.9,0,2,0z"/>
	<g class="st1">
		<path class="st2" d="M25.1,64.2c-0.3-0.4-0.7-0.6-1.2-0.6c-0.5,0-1.6,0.6-3.2,1.8c-1.6,1.2-2.9,1.8-4,1.8c-0.7,0-1.2-0.4-1.4-1.1
			c-0.3-0.8-0.4-2.5-0.4-5.2V43.3c0-0.6,0.1-1,0.2-1.1c0.1-0.1,0.4-0.2,0.8-0.2h6.6c2.1,0,3.2-0.7,3.2-2.1c0-1.2-0.7-1.9-2.2-1.9
			h-7.2c-0.9,0-1.3-0.3-1.3-1V20.5c0-1.3-0.2-2.2-0.5-2.7c-0.3-0.5-1.1-0.8-2.3-0.8c-1.1,0-1.7,1-1.7,2.9c0,4.1-0.2,7.2-0.6,9.4
			c-0.4,2.2-1.1,3.9-2.1,5.1c-1,1.2-1.8,2-2.3,2.4c-0.6,0.4-1.4,0.7-2.4,1C2,38,1.3,38.2,1,38.5c-0.4,0.3-0.5,0.7-0.5,1.3
			c0,0.7,0.2,1.3,0.7,1.7c0.5,0.4,1.4,0.6,2.8,0.6c1.7,0,2.7,0,2.9,0.1c0.2,0.1,0.3,0.4,0.3,1v18.8c0,7.5,2.6,11.3,7.8,11.3
			c2,0,4.3-1,6.9-3.1c2.6-2.1,3.9-3.6,3.9-4.5C25.6,65,25.5,64.6,25.1,64.2z"/>
		<path class="st2" d="M64.5,41.9c-4-3.7-8.7-5.6-14.1-5.6c-6.6,0-11.7,1.8-15.2,5.4c0.8-0.2,1.8-0.5,2.9-0.6
			c4.1-0.7,7.3-0.4,8.9-0.2c0.2,0,0.4,0,0.6,0c0.8-0.1,1.6-0.2,2.5-0.2c3.7,0,6.7,1.3,9.1,3.9c2.4,2.6,3.6,5.9,3.6,10
			c0,4.1-1.1,7.5-3.3,10.3c-2.2,2.7-5.2,4-9,4c-3.6,0-6.5-1.3-8.8-3.9c-2.3-2.6-3.5-6.1-3.5-10.6c0-4,1-7.3,3.1-9.9
			c1.1-1.3,2.4-2.3,4-3c-5.8,1.2-10.8,3.8-13.4,5.4c-0.4,0.3-0.8,0.6-0.9,1.1c-0.9,2.2-1.4,4.5-1.4,7c0,5.2,2,9.5,6.1,13
			c4,3.5,8.6,5.2,13.7,5.2c6.4,0,11.6-1.7,15.4-5.1c3.8-3.4,5.8-7.8,5.8-13.3C70.5,49.8,68.5,45.6,64.5,41.9z"/>
		<path class="st2" d="M275.9,41.9c-4.1-3.7-8.8-5.6-14.3-5.6c-6.7,0-11.8,1.8-15.4,5.4c0.8-0.2,1.8-0.5,2.9-0.6
			c4.2-0.7,7.4-0.4,9-0.2c0.2,0,0.4,0,0.6,0c0.8-0.1,1.6-0.2,2.5-0.2c3.7,0,6.8,1.3,9.2,3.9c2.4,2.6,3.6,5.9,3.6,10
			c0,4.1-1.1,7.5-3.4,10.3c-2.3,2.7-5.3,4-9.1,4c-3.6,0-6.6-1.3-8.9-3.9c-2.3-2.6-3.5-6.1-3.5-10.6c0-4,1.1-7.3,3.2-9.9
			c1.1-1.3,2.4-2.3,4-3c-5.9,1.2-10.9,3.8-13.5,5.4c-0.4,0.3-0.8,0.6-1,1.1c-0.9,2.2-1.4,4.5-1.4,7c0,5.2,2.1,9.5,6.2,13
			c4.1,3.5,8.7,5.2,13.9,5.2c6.5,0,11.7-1.7,15.6-5.1c3.9-3.4,5.8-7.8,5.8-13.3C282,49.8,280,45.6,275.9,41.9z"/>
		<path class="st2" d="M319.5,41.9c-4-3.7-8.7-5.6-14.1-5.6c-6.6,0-11.7,1.8-15.2,5.4c0.8-0.2,1.8-0.5,2.9-0.6
			c4.1-0.7,7.3-0.4,8.9-0.2c0.2,0,0.4,0,0.6,0c0.8-0.1,1.6-0.2,2.5-0.2c3.7,0,6.7,1.3,9.1,3.9c2.4,2.6,3.6,5.9,3.6,10
			c0,4.1-1.1,7.5-3.3,10.3c-2.2,2.7-5.2,4-9,4c-3.6,0-6.5-1.3-8.8-3.9c-2.3-2.6-3.5-6.1-3.5-10.6c0-4,1-7.3,3.1-9.9
			c1.1-1.3,2.4-2.3,4-3c-5.8,1.2-10.8,3.8-13.4,5.4c-0.4,0.3-0.8,0.6-0.9,1.1c-0.9,2.2-1.4,4.5-1.4,7c0,5.2,2,9.5,6.1,13
			c4,3.5,8.6,5.2,13.7,5.2c6.4,0,11.6-1.7,15.4-5.1c3.8-3.4,5.8-7.8,5.8-13.3C325.5,49.8,323.5,45.6,319.5,41.9z"/>
		<path class="st2" d="M98.1,64.2c-0.3-0.4-0.7-0.6-1.2-0.6c-0.5,0-1.6,0.6-3.2,1.8c-1.6,1.2-2.9,1.8-4,1.8c-0.7,0-1.2-0.4-1.4-1.1
			c-0.3-0.8-0.4-2.5-0.4-5.2V43.3c0-0.6,0.1-1,0.2-1.1c0.1-0.1,0.4-0.2,0.8-0.2h6.6c2.1,0,3.2-0.7,3.2-2.1c0-1.2-0.7-1.9-2.2-1.9
			h-7.2c-0.9,0-1.3-0.3-1.3-1V20.5c0-1.3-0.2-2.2-0.5-2.7c-0.3-0.5-1.1-0.8-2.3-0.8c-1.1,0-1.6,1-1.6,2.9c0,4.1-0.2,7.2-0.6,9.4
			c-0.4,2.2-1.1,3.9-2.1,5.1c-1,1.2-1.8,2-2.3,2.4c-0.6,0.4-1.4,0.7-2.4,1c-1,0.3-1.7,0.6-2.1,0.8c-0.4,0.3-0.5,0.7-0.5,1.3
			c0,0.7,0.2,1.3,0.7,1.7c0.5,0.4,1.4,0.6,2.7,0.6c1.7,0,2.7,0,2.9,0.1c0.2,0.1,0.3,0.4,0.3,1v18.8c0,7.5,2.6,11.3,7.9,11.3
			c2,0,4.3-1,6.9-3.1c2.6-2.1,3.9-3.6,3.9-4.5C98.6,65,98.5,64.6,98.1,64.2z"/>
		<path class="st2" d="M145.5,69c-0.4-0.3-1-0.6-1.7-0.8c-3.1-0.9-4.7-2.5-4.7-4.9V46.8c0-3-1.3-5.5-3.9-7.7
			c-2.6-2.2-6.1-3.2-10.4-3.2c-3.5,0-6.7,0.6-9.6,1.7c-2.9,1.1-4.4,2.5-4.4,4.1c0,0.7,0.3,1.2,0.8,1.6c0.6,0.4,1.2,0.6,2,0.6
			c0.3,0,1-0.3,1.9-0.9c2.7-1.8,5.4-2.7,8.3-2.7c2.2,0,4,0.6,5.3,1.9c1.3,1.2,2,2.9,2,4.9v13.3c0,2.6-1,4.7-3,6.3
			c-2,1.6-4.2,2.4-6.6,2.4c-2.6,0-5-0.8-7-2.5c-2-1.6-3-4-3-7.1c0-2.6,0.9-4.8,2.7-6.3c1.8-1.6,4-2.4,6.7-2.4c1.3,0,2.6,0.3,3.8,0.9
			c1.2,0.6,2.1,0.9,2.5,0.9c0.6,0,1.1-0.1,1.6-0.4c0.4-0.3,0.6-0.7,0.6-1.2c0-1-1-2-3.1-3c-2.1-1-4-1.4-5.7-1.4
			c-5.1,0-9.3,1.3-12.6,3.9c-3.2,2.6-4.9,5.6-4.9,9c0,3.2,0.7,5.9,2.3,8.1c1.5,2.2,3.5,3.8,6,4.8c2.5,1,4.8,1.6,6.8,1.6
			c4.3,0,8.3-1.1,12-3.4c0.4-0.2,0.7-0.3,0.9-0.3c0.3,0,0.5,0.3,0.5,0.8c0,0.3,0.2,0.7,0.7,1c0.4,0.3,0.9,0.5,1.3,0.5
			c0.4,0,1.2-0.2,2.3-0.4s2.1-0.4,2.9-0.4c0.7,0,1.5,0.2,2.6,0.4s1.9,0.4,2.5,0.4c0.6,0,1.1-0.2,1.6-0.5c0.5-0.3,0.8-0.7,0.8-1.1
			C146,69.8,145.8,69.3,145.5,69z"/>
		<path class="st2" d="M170.8,70.3c-0.4-0.4-1.3-0.7-2.9-1c-1.6-0.3-2.6-0.7-3.1-1.4c-0.5-0.6-0.7-1.4-0.7-2.3V5.1
			c0-1.5-0.2-2.5-0.8-3.1c-0.5-0.6-1.3-0.9-2.4-0.9c-0.6,0-1.4,0.1-2.6,0.3c-1.1,0.2-2,0.3-2.6,0.3c-0.5,0-1.3-0.1-2.4-0.3
			c-1.1-0.2-1.9-0.3-2.4-0.3c-0.6,0-1.2,0.2-1.7,0.5c-0.6,0.3-0.8,0.7-0.8,1.2c0,0.5,0.2,1,0.5,1.4c0.3,0.4,1.3,0.8,3,1.2
			c1.7,0.4,2.8,1,3.3,1.9c0.5,0.9,0.8,1.9,0.8,3.1v54.3c0,1.1-0.3,2.1-0.8,3c-0.5,0.9-1.6,1.4-3.3,1.7c-1.7,0.3-2.7,0.6-3,0.9
			c-0.3,0.4-0.5,0.8-0.5,1.4c0,0.5,0.2,1,0.6,1.3c0.4,0.3,1.3,0.5,2.6,0.5c0.9,0,2.3-0.1,4.1-0.4c1.8-0.3,3.2-0.4,4.1-0.4
			c1,0,2.5,0.1,4.5,0.4c2,0.2,3.5,0.4,4.5,0.4c1.6,0,2.5-0.5,2.5-1.6C171.3,71.3,171.1,70.8,170.8,70.3z"/>
		<path class="st2" d="M234.3,42.6c-3.8-3.8-8.5-5.7-14.1-5.7c-2,0-4.4,0.5-7,1.7c-2.6,1.1-4,2.4-4,3.9c0,0.3,0.2,0.7,0.6,1
			c0.4,0.3,0.9,0.5,1.3,0.5c0.5,0,1.5-0.4,3-1.1c1.5-0.8,3-1.1,4.4-1.1c3.8,0,6.8,1.4,9.2,4.1c2.4,2.8,3.6,6.1,3.6,9.9
			c0,5-1.5,8.5-4.5,10.7c-3,2.1-5.8,3.2-8.5,3.2c-2.3,0-4.8-0.8-7.4-2.4c-2.6-1.6-3.9-3.4-3.9-5.4V4.8c0-1.5-0.2-2.5-0.7-3
			c-0.5-0.5-1.2-0.8-2.3-0.8c-0.5,0-1.4,0.1-2.5,0.3c-1.1,0.2-2,0.3-2.6,0.3c-0.7,0-1.6-0.1-3-0.4c-1.3-0.3-2.4-0.4-3-0.4
			c-0.6,0-1.3,0.2-1.9,0.5c-0.7,0.3-1,0.8-1,1.3c0,0.5,0.2,1,0.5,1.4c0.3,0.4,1.3,0.7,3,0.9c1.7,0.2,2.9,0.7,3.6,1.3
			c1.3,1.1,2,3,2,5.7v50.1c0,1.5-0.4,2.8-1.1,3.9c-0.7,1.1-2.1,1.9-4.2,2.2c-2,0.4-3.2,0.7-3.6,1c-0.3,0.3-0.5,0.6-0.5,1.1
			c0,0.8,0.5,1.4,1.2,1.8c0.5,0.3,1.1,0.4,1.8,0.4c0.7,0,1.6-0.1,2.9-0.4c1.3-0.3,2.3-0.4,3-0.4c0.7,0,1.7,0.1,3,0.4
			c1.2,0.3,2.2,0.4,2.8,0.4c0.8,0,1.3-0.1,1.6-0.3c0.3-0.2,0.5-0.6,0.8-1c0.2-0.5,0.4-0.8,0.6-1l1.9,0.8c4.3,2.1,7.9,3.2,10.7,3.2
			c5.6,0,10.3-1.6,14.2-4.9c3.9-3.3,5.9-7.4,5.9-12.5C239.9,51.1,238,46.4,234.3,42.6z"/>
		<path class="st2" d="M376.2,65c-0.4-0.5-0.8-0.7-1.3-0.7c-0.5,0-1.2,0.5-2.1,1.5c-0.9,1-1.6,1.5-2.2,1.5c-1.1,0-2-0.4-2.7-1.2
			l-11.6-12.5c-0.8-0.8-1.1-1.6-1.1-2.4c0-0.4,0.1-0.8,0.3-1c0.2-0.2,1.2-1.2,2.9-2.9c1.7-1.7,3.3-2.9,4.6-3.5
			c1.4-0.6,3.8-0.9,7.5-0.9c2.4,0,3.7-0.7,3.7-2c0-0.7-0.4-1.3-1.1-1.7c-0.7-0.4-1.5-0.6-2.5-0.6c-0.9,0-2.2,0.1-4.1,0.3
			c-1.8,0.2-3.2,0.3-4.1,0.3c-0.7,0-1.8-0.1-3.1-0.2c-1.3-0.2-2.3-0.2-3-0.2c-1,0-1.7,0.2-2,0.5c-0.3,0.3-0.5,0.9-0.5,1.6
			c0,0.7,0.4,1.2,1.2,1.5c0.8,0.3,1.2,0.6,1.2,0.8c0,0.2-0.2,0.5-0.5,0.8l-6.6,6.7c-2.3,2.3-3.6,3.5-4,3.5c-0.6,0-0.9-0.4-0.9-1.2
			V13.8c0-4.3-0.1-7.2-0.3-8.6c-0.2-1.4-0.5-2.3-0.9-2.7c-0.3-0.3-0.8-0.5-1.5-0.5c-0.4,0-1.1,0.1-2.2,0.3c-1.1,0.2-2,0.3-2.7,0.3
			c-0.7,0-1.6-0.2-2.7-0.4c-1.1-0.3-2-0.4-2.6-0.4c-0.6,0-1.1,0.2-1.7,0.5c-0.6,0.3-0.8,0.8-0.8,1.3c0,0.6,0.2,1.1,0.5,1.5
			c0.4,0.4,1.4,0.8,3,1.2c1.6,0.4,2.7,0.9,3.2,1.6c0.5,0.7,0.7,1.5,0.7,2.4v54c0,1.1-0.2,2.1-0.7,2.9c-0.5,0.8-1.6,1.3-3.3,1.5
			c-1.7,0.2-2.7,0.5-3,0.8c-0.3,0.4-0.5,0.9-0.5,1.5c0,1.3,1,1.9,3.1,1.9c0.9,0,2.3-0.1,4.1-0.4c1.8-0.3,3.2-0.4,4.1-0.4
			c1,0,2.5,0.1,4.4,0.4c2,0.2,3.4,0.4,4.4,0.4c1,0,1.7-0.1,2-0.4c0.3-0.3,0.4-0.7,0.4-1.2c0-0.6-0.2-1.1-0.5-1.5
			c-0.4-0.4-1.3-0.7-2.8-1c-1.5-0.2-2.5-0.6-3-1.3c-0.4-0.6-0.7-1.4-0.7-2.3c0-2,0-3.1,0.1-3.5c0.1-0.4,0.5-0.9,1.3-1.6
			c0.8-0.7,1.5-1.4,2.1-2c0.7-0.7,1.1-1,1.3-1c0.6,0,2.4,1.7,5.3,5.2c4,4.7,7,7.9,9.1,9.4c2.1,1.5,3.9,2.2,5.4,2.2
			c1.7,0,3.4-0.8,5.3-2.4c1.8-1.6,2.7-3.3,2.7-5C376.8,66,376.6,65.5,376.2,65z"/>
		<path class="st2" d="M393,23.2c-1.1-1.1-2.4-1.6-3.9-1.6c-1.4,0-2.6,0.5-3.7,1.5c-1.1,1-1.6,2.2-1.6,3.5c0,1.4,0.5,2.7,1.6,3.7
			c1,1,2.3,1.5,3.8,1.5c1.5,0,2.7-0.5,3.8-1.4c1.1-0.9,1.6-2,1.6-3.4C394.6,25.5,394.1,24.3,393,23.2z M398.4,68.8
			c-0.4-0.3-1.1-0.5-2.1-0.6c-1-0.1-1.8-0.5-2.4-1c-0.6-0.5-0.9-1.6-0.9-3.2V43.4c0-0.2,0-0.6,0-1.1c0-0.5,0.1-1,0.1-1.3
			c0-2.1-0.6-3.1-1.8-3.1c-0.6,0-1.4,0.1-2.6,0.3c-1.2,0.2-2,0.3-2.6,0.3c-0.5,0-1.3-0.1-2.3-0.4c-1-0.3-1.9-0.4-2.4-0.4
			c-0.7,0-1.2,0.2-1.7,0.6c-0.5,0.4-0.7,0.9-0.7,1.5c0,0.5,0.1,1,0.4,1.4c0.3,0.4,1,0.7,2.2,0.9c1.2,0.2,2,0.6,2.6,1
			c0.6,0.5,0.9,1.4,0.9,2.8v16.7c0,2.3-0.2,3.7-0.7,4.3c-0.5,0.6-1.3,1-2.6,1.2c-1.2,0.2-2,0.5-2.3,0.8c-0.3,0.3-0.5,0.7-0.4,1.2
			c0,0.8,0.5,1.6,1.2,2c0.5,0.2,1,0.4,1.6,0.4c0.8,0,1.9-0.1,3.4-0.4c1.5-0.3,2.7-0.4,3.5-0.4c0.8,0,2,0.1,3.7,0.3
			c1.7,0.2,2.9,0.3,3.7,0.3c1.9,0,2.9-0.5,2.9-1.7C399,69.7,398.8,69.1,398.4,68.8z"/>
		<path class="st2" d="M444.2,68.6c-1.2-0.3-2.1-0.6-2.5-1.1c-0.5-0.4-0.7-1.4-0.7-2.8V50.7l0.1-3.1c0-2.4-0.2-4.2-0.6-5.5
			c-0.4-1.3-1.2-2.4-2.5-3.2c-1.2-0.9-2.7-1.3-4.4-1.3c-2.9,0-5.8,1.2-8.8,3.5c-3,2.3-4.5,4.1-4.5,5.2c0,0.4,0.2,0.7,0.5,1
			c0.3,0.3,0.6,0.5,0.9,0.5c0.8,0,2.1-0.8,4-2.3c1.8-1.5,3.3-2.3,4.3-2.3c2.3,0,3.5,1.3,3.5,3.8c0,0.2,0,1.3-0.1,3.2
			c-0.1,1.9-0.2,6.7-0.2,14.5c0,1.2-0.4,2.1-1.2,2.7c-0.8,0.6-1.7,0.9-2.8,0.9c-0.5,0-1,0.2-1.5,0.6c-0.4,0.4-0.6,0.8-0.6,1.2
			c0,0.6,0.2,1,0.8,1.4c0.5,0.4,1,0.6,1.6,0.6c0.4,0,1.2-0.1,2.6-0.4c1.3-0.2,3-0.4,5-0.4c1.2,0,2.6,0.1,4.3,0.2
			c1.7,0.1,2.7,0.2,2.9,0.2c1.2,0,1.8-0.5,1.8-1.5C446.1,69.4,445.5,68.9,444.2,68.6z M424.1,69.1c-0.3-0.3-0.9-0.6-1.8-0.8
			c-0.9-0.2-1.7-0.5-2.3-0.8c-0.6-0.4-1-0.7-1.2-0.9c-0.2-0.2-0.2-0.8-0.2-1.9l0.3-13.9c0-3.1,0-5.9-0.1-8.6c0-1.6-0.2-2.7-0.5-3.2
			c-0.3-0.5-0.7-0.8-1.4-0.8c-0.3,0-1.1,0.1-2.4,0.3c-1.3,0.2-2.1,0.3-2.5,0.3c-0.6,0-1.3-0.1-2.2-0.3c-0.9-0.2-1.5-0.3-1.9-0.3
			c-0.8,0-1.5,0.2-2.1,0.7c-0.5,0.4-0.8,0.9-0.8,1.4c0,1.1,0.8,1.8,2.2,2s2.5,0.7,3,1.3c0.5,0.6,0.7,1.5,0.7,2.7V62
			c0,1.8-0.1,3-0.3,3.6c-0.2,0.6-0.7,1.3-1.4,2.1c-0.3,0.3-0.9,0.4-2.1,0.5c-1,0.1-1.6,0.3-1.9,0.6c-0.3,0.3-0.4,0.8-0.4,1.3
			c0,1.2,0.8,1.8,2.5,1.8c0.8,0,1.9-0.1,3.5-0.3s2.8-0.3,3.8-0.3c1.2,0,2.4,0.1,3.7,0.3c1.2,0.2,2.5,0.3,3.6,0.3
			c1.7,0,2.6-0.5,2.6-1.6C424.5,69.8,424.4,69.4,424.1,69.1z"/>
		<path class="st2" d="M491.5,65c-2-2.9-4.6-5.1-7.8-6.6l-0.2-0.2l0.3-0.4c3.2-2.2,4.8-5.1,4.8-8.7c0-3.4-1.2-6.1-3.5-8.3
			s-5.4-3.6-9.3-4c-0.4,0-0.6-0.2-0.6-0.5c0-0.3,0.5-0.9,1.6-1.8c1.1-0.9,2.4-1.3,4-1.3c0.3,0,0.7,0,1.2,0.1
			c0.5,0.1,0.9,0.1,1.2,0.1c1.4,0,2.6-0.3,3.5-1c0.9-0.7,1.4-1.6,1.4-2.7c0-1.9-0.9-2.9-2.8-2.9c-3.2,0-5.4,0.2-6.7,0.6
			c-1.3,0.4-2.8,1.5-4.4,3.4c-1.6,1.9-2.8,3.6-3.4,5.1c-0.2,0.5-0.6,0.7-1.1,0.8c-4.2,0.5-7.7,1.8-10.5,3.9
			c-2.8,2.1-4.1,4.7-4.1,7.8c0,2,0.5,3.8,1.4,5.4c0.9,1.6,2.2,3,3.8,4l0.4,0.5l-0.3,0.3c-3.3,1.4-6,3.5-8.1,6.2
			c-2.1,2.7-3.1,5.7-3.1,8.8c0,5.3,2.2,9.7,6.6,13c4.4,3.3,9.7,5,16,5c6.1,0,11.4-1.6,15.9-4.8c4.5-3.2,6.7-7.3,6.7-12.3
			C494.5,71,493.5,67.9,491.5,65z M464,44.6c0.8-1.3,1.7-2.3,2.8-2.8c1.1-0.6,1.9-0.8,2.3-0.8c0.3,0,0.4,0.2,0.4,0.5
			c0,1.3,0.6,1.9,1.7,1.9c1.3,0,2.1-0.8,2.5-2.2c0.1-0.3,0.2-0.4,0.4-0.4c0.5,0,1.4,0.3,2.7,1c1.3,0.6,2.4,1.6,3.3,2.9
			c0.8,1.3,1.3,2.6,1.3,3.9c0,2.4-0.9,4.5-2.7,6.3c-1.8,1.7-3.9,2.6-6.4,2.6c-2.5,0-4.6-0.8-6.5-2.4c-1.9-1.6-2.9-3.6-2.9-5.9
			C462.8,47.3,463.2,45.9,464,44.6z M482.4,83.6c-2.9,2.4-6.4,3.7-10.6,3.7c-3.7,0-7-1.2-10.1-3.6s-4.6-5.5-4.6-9.4
			c0-4.1,1.3-7.3,3.9-9.6s6.2-3.5,10.9-3.5c4.3,0,7.8,1.2,10.6,3.5c2.8,2.4,4.2,5.5,4.2,9.5C486.7,78,485.3,81.2,482.4,83.6z"/>
	</g>
	<text transform="matrix(1 0 0 1 67.2812 294.3965)" style="font-family:'PoorRichard-Regular'; font-size:100px;">total booking</text>
</g>
<g id="Layer_1_copy">
	<path class="st3" d="M3.5,1.5h489c1.1,0,2,0.9,2,2v86c0,1.1-0.9,2-2,2H3.5c-1.1,0-2-0.9-2-2v-86C1.5,2.4,2.4,1.5,3.5,1.5z"/>
	<g>
		<g>
			<path class="st4" d="M318.7,41.7c-4.1-3.8-9-5.7-14.6-5.7c-6.7,0-12,1.9-15.7,5.5l-2.8,2.8l3.8-1.1c0.7-0.2,1.6-0.4,2.7-0.6
				c0.8-0.1,1.5-0.2,2.2-0.3c-3.9,1.3-7.1,3.1-8.9,4.2c-0.6,0.4-1.1,0.9-1.3,1.5c-0.9,2.2-1.4,4.7-1.4,7.3c0,5.4,2.1,9.9,6.3,13.5
				c4.2,3.6,8.9,5.4,14.1,5.4c6.6,0,11.9-1.8,15.8-5.3c4-3.5,6-8.2,6-13.8c0-2.5-0.5-4.9-1.6-7.1C322.3,45.7,320.8,43.6,318.7,41.7z
				 M301.5,42.3c0.7-0.1,1.5-0.2,2.2-0.2c3.4,0,6,1.2,8.2,3.5c2.2,2.4,3.3,5.4,3.3,9.2c0,3.9-1,6.9-3.1,9.5c-2,2.4-4.6,3.6-8,3.6
				c-3.3,0-5.8-1.1-7.9-3.5c-2.1-2.4-3.1-5.6-3.1-9.8c0-3.7,1-6.8,2.8-9.1c0.7-0.8,1.4-1.5,2.3-2c0.6-0.4,1.3-0.6,2-0.8
				C300.8,42.5,301.4,42.4,301.5,42.3z"/>
			<path class="st4" d="M275.7,41.7c-4.1-3.8-9-5.7-14.6-5.7c-6.7,0-12,1.9-15.7,5.5l-2.8,2.8l3.8-1.1c0.7-0.2,1.6-0.4,2.7-0.6
				c0.8-0.1,1.5-0.2,2.2-0.3c-3.9,1.3-7.1,3.1-8.9,4.2c-0.6,0.4-1.1,0.9-1.3,1.5c-0.9,2.2-1.4,4.7-1.4,7.3c0,5.4,2.1,9.9,6.3,13.5
				c4.2,3.6,8.9,5.4,14.1,5.4c6.6,0,11.9-1.8,15.8-5.3c4-3.5,6-8.2,6-13.8c0-2.5-0.5-4.9-1.6-7.1C279.3,45.7,277.8,43.6,275.7,41.7z
				 M258.5,42.3c0.7-0.1,1.5-0.2,2.2-0.2c3.4,0,6,1.2,8.2,3.5c2.2,2.4,3.3,5.4,3.3,9.2c0,3.9-1,6.9-3.1,9.5c-2,2.4-4.6,3.6-8,3.6
				c-3.3,0-5.8-1.1-7.9-3.5c-2.1-2.4-3.1-5.6-3.1-9.8c0-3.7,1-6.8,2.8-9.1c0.9-1.1,1.9-1.9,3.1-2.4c0.3-0.1,0.6-0.2,0.9-0.3
				C257.4,42.6,258.3,42.4,258.5,42.3z"/>
			<path class="st4" d="M373.3,66.6c0,1.9-1,3.8-3,5.6c-2,1.8-4,2.7-5.8,2.7c-1.7,0-3.7-0.8-5.9-2.4c-2.1-1.5-5.1-4.6-9.1-9.4
				c-2.8-3.4-4-4.3-4.4-4.6c-0.1,0.1-0.3,0.3-0.7,0.6c-0.7,0.6-1.4,1.3-2.1,2c-0.9,0.8-1,1.1-1,1.1c0,0.1-0.1,0.7-0.1,3.2
				c0,0.7,0.2,1.2,0.5,1.7c0.1,0.2,0.6,0.6,2.2,0.8c1.8,0.3,2.9,0.7,3.4,1.3c0.5,0.6,0.7,1.3,0.7,2.2c0,0.8-0.2,1.4-0.7,1.9
				c-0.5,0.5-1.3,0.7-2.6,0.7c-1,0-2.5-0.1-4.5-0.4c-1.8-0.2-3.3-0.4-4.2-0.4c-0.9,0-2.2,0.1-3.9,0.4c-1.8,0.2-3.2,0.4-4.2,0.4
				c-3.5,0-4.1-1.8-4.1-2.9c0-0.8,0.2-1.5,0.7-2.1c0.5-0.6,1.6-1,3.6-1.2c1.3-0.1,2.1-0.5,2.5-1c0.4-0.6,0.6-1.4,0.6-2.4V11.4
				c0-0.7-0.2-1.3-0.5-1.8c-0.2-0.2-0.8-0.7-2.6-1.2c-2.4-0.6-3.1-1.1-3.5-1.5c-0.5-0.6-0.8-1.3-0.8-2.1c0-0.9,0.5-1.6,1.3-2.1
				c0.7-0.4,1.5-0.6,2.2-0.6c0.6,0,1.5,0.2,2.8,0.5c1.1,0.3,1.9,0.4,2.4,0.4c0.7,0,1.5-0.1,2.5-0.3c1.1-0.2,1.9-0.4,2.3-0.4
				c0.9,0,1.7,0.3,2.2,0.8c0.6,0.5,0.9,1.5,1.2,3.2c0.2,1.4,0.3,4.3,0.3,8.6v38.4c0,0,0,0,0,0c0.4-0.3,1.3-1.1,3.1-3l6.3-6.5
				c0,0-0.1-0.1-0.2-0.1c-1.6-0.6-1.8-1.8-1.8-2.4c0-1,0.2-1.7,0.7-2.2c0.5-0.6,1.4-0.8,2.7-0.8c0.7,0,1.8,0.1,3.1,0.2
				c1.2,0.1,2.2,0.2,2.9,0.2c0.8,0,2.1-0.1,3.9-0.3c1.9-0.2,3.2-0.3,4.1-0.3c1.1,0,2.1,0.2,3,0.7c1,0.5,1.5,1.4,1.5,2.5
				c0,1.3-0.8,2.9-4.6,2.9c-4.2,0-6.1,0.4-6.9,0.8c-1.2,0.5-2.6,1.6-4.2,3.2c-2.3,2.3-2.7,2.7-2.8,2.8c0,0-0.1,0.2-0.1,0.4
				c0,0.5,0.3,1.1,0.8,1.7l11.5,12.3c0.5,0.6,1.1,0.9,1.9,0.9c0.2,0,0.7-0.2,1.4-1.1c1.1-1.2,2-1.8,2.8-1.8c0.6,0,1.4,0.2,2.1,1.1
				C373,65.2,373.3,65.9,373.3,66.6z"/>
			<path class="st4" d="M17.8,43.8v17.1c0,3.4,0.2,4.5,0.3,4.8c0.1,0.4,0.3,0.4,0.4,0.4c0.6,0,1.6-0.3,3.3-1.5
				c2.3-1.7,3.2-1.9,3.7-1.9c0.5,0,1.3,0.2,1.9,1c0.5,0.6,0.7,1.3,0.7,2c0,1.3-1.3,2.8-4.2,5.2c-2.8,2.2-5.2,3.3-7.4,3.3
				c-4,0-8.7-2.1-8.7-12.1V43.7c-0.4,0-1,0-2.1,0c-1.6,0-2.7-0.2-3.3-0.8c-0.5-0.4-1.1-1.2-1.1-2.4c0-1.2,0.5-1.8,0.9-2.1
				c0.5-0.3,1.2-0.7,2.4-1c0.9-0.2,1.6-0.5,2.1-0.8c0.5-0.3,1.2-1,2.1-2.2c0.9-1,1.5-2.6,1.9-4.5c0.4-2.1,0.6-5.1,0.6-9
				c0-3.4,1.6-3.9,2.6-3.9c1.6,0,2.6,0.4,3.1,1.3c0.4,0.7,0.6,1.8,0.6,3.2v16.2c0.1,0,0.2,0,0.3,0h7.1c2,0,3.2,1,3.2,2.8
				c0,1.2-0.5,3.1-4.1,3.1h-6.5C17.8,43.6,17.8,43.7,17.8,43.8z"/>
			<path class="st4" d="M51.5,35.9c-6.7,0-12,1.9-15.7,5.5l-2.8,2.8l3.8-1.1c0.7-0.2,1.6-0.4,2.7-0.6c0.8-0.1,1.5-0.2,2.2-0.3
				c-3.9,1.3-7.1,3.1-8.9,4.2c-0.6,0.4-1.1,0.9-1.3,1.5c-0.9,2.2-1.4,4.7-1.4,7.3c0,5.4,2.1,9.9,6.3,13.5c4.2,3.6,8.9,5.4,14.1,5.4
				c6.6,0,11.9-1.8,15.8-5.3c4-3.5,6-8.2,6-13.8c0-5-2.1-9.5-6.2-13.3C62,37.9,57.1,35.9,51.5,35.9z M49,42.3
				c0.7-0.1,1.5-0.2,2.2-0.2c3.3,0,6,1.2,8.2,3.5c2.2,2.4,3.3,5.4,3.3,9.2c0,3.9-1,6.9-3.1,9.5c-2,2.4-4.6,3.6-8,3.6
				c-3.3,0-5.9-1.1-7.9-3.5c-2.1-2.4-3.2-5.6-3.2-9.8c0-3.7,1-6.8,2.8-9.1c0.7-0.8,1.5-1.5,2.4-2.1c0.6-0.3,1.2-0.6,1.9-0.8
				C48.1,42.6,48.8,42.4,49,42.3z"/>
			<path class="st4" d="M89.6,60.9c0,3.4,0.2,4.5,0.3,4.8c0.2,0.5,0.3,0.5,0.5,0.5c0.6,0,1.6-0.3,3.3-1.5c2.3-1.7,3.2-1.9,3.7-1.9
				c0.5,0,1.2,0.2,1.9,0.9c0.5,0.6,0.7,1.2,0.7,2.1c0,1.3-1.3,2.8-4.2,5.2c-2.8,2.2-5.2,3.3-7.4,3.3c-4,0-8.7-2.1-8.7-12.1V43.7
				c-0.4,0-1,0-2.1,0c-1.6,0-2.7-0.3-3.3-0.8c-0.5-0.4-1.1-1.1-1.1-2.4c0-1.2,0.5-1.8,1-2.1c0.5-0.3,1.2-0.6,2.4-1
				c0.9-0.2,1.6-0.5,2-0.8c0.3-0.2,1-0.8,2.1-2.2c0.9-1,1.5-2.6,1.9-4.5c0.4-2,0.6-5.1,0.6-9c0-3.4,1.6-3.9,2.6-3.9
				c0.6,0,2.4,0,3.1,1.3c0.4,0.7,0.6,1.7,0.6,3.2v16.2c0.1,0,0.2,0,0.3,0H97c2,0,3.1,1,3.1,2.8c0,0.9-0.4,3.1-4.1,3.1h-6.5V60.9z"/>
			<path class="st4" d="M143.6,67.3c-3.9-1.1-3.9-3.2-3.9-3.9V47.3c0-3.2-1.4-6-4.2-8.3c-2.8-2.2-6.4-3.4-10.8-3.4
				c-3.5,0-6.8,0.6-9.8,1.7c-3.3,1.2-5,2.9-5,4.9c0,1,0.4,1.8,1.2,2.4c0.7,0.5,1.6,0.8,2.6,0.8c0.6,0,1.3-0.3,2.4-1.1
				c2.5-1.6,5-2.5,7.6-2.5c1.9,0,3.4,0.5,4.5,1.6c1.1,1,1.6,2.3,1.6,4v2.7c-0.4-1-1.6-1.9-3.4-2.8c-2.2-1-4.2-1.5-6-1.5
				c-5.2,0-9.6,1.4-13,4.1c-3.4,2.8-5.2,6-5.2,9.7c0,3.3,0.8,6.2,2.4,8.5c1.6,2.3,3.7,4,6.3,5.1c2.6,1.1,5,1.6,7.1,1.6
				c4.3,0,8.4-1.2,12.2-3.5c0.1,0.5,0.5,0.9,1,1.3c0.6,0.4,1.3,0.7,1.9,0.7c0.5,0,1.2-0.1,2.5-0.5c1.1-0.3,1.9-0.4,2.6-0.4
				c0.5,0,1.3,0.1,2.3,0.4c1.2,0.3,2.1,0.5,2.7,0.5c0.8,0,1.5-0.2,2.1-0.6c1.1-0.7,1.2-1.5,1.2-2c0-1.1-0.3-2-0.9-2.4
				C145.2,67.9,144.5,67.6,143.6,67.3z M129.8,52.2v8.3c0,2.3-0.8,4-2.6,5.4c-1.8,1.4-3.7,2.1-5.9,2.1c-2.3,0-4.5-0.7-6.3-2.2
				c-1.8-1.4-2.6-3.5-2.6-6.2c0-2.3,0.7-4.1,2.3-5.5c1.6-1.4,3.5-2.1,5.9-2.1c1.1,0,2.2,0.3,3.3,0.8c1.8,0.9,2.5,1,2.9,1
				c0.8,0,1.5-0.2,2.1-0.6C129.3,52.9,129.6,52.6,129.8,52.2z"/>
			<path class="st4" d="M170.7,86.3c0.5,0.7,0.7,1.5,0.7,2.4c0,0.9-0.3,3-3.4,3c-1,0-2.5-0.2-4.6-0.5c-1.8-0.3-3.3-0.5-4.3-0.5
				c-0.9,0-2.2,0.2-3.9,0.5c-1.9,0.3-3.2,0.5-4.2,0.5c-1.6,0-2.7-0.3-3.2-0.8c-0.6-0.6-0.9-1.3-0.9-2.3c0-0.9,0.2-1.6,0.6-2.2
				c0.5-0.7,1.6-1.2,3.6-1.6c1.3-0.2,2.2-0.7,2.6-1.5c0.4-0.9,0.7-2,0.7-3.2V13.8c0-1.3-0.2-2.4-0.7-3.3c-0.4-0.8-1.3-1.4-2.7-1.8
				c-2-0.6-3-1.2-3.5-1.9c-0.4-0.7-0.6-1.4-0.6-2.2c0-1,0.4-1.8,1.2-2.3c0.7-0.5,1.5-0.7,2.3-0.7c0.6,0,1.5,0.1,2.6,0.4
				c1,0.2,1.7,0.3,2.1,0.3c0.5,0,1.2-0.1,2.3-0.3c1.2-0.3,2.1-0.4,2.7-0.4c1.7,0,2.7,0.8,3.2,1.5c0.6,0.9,0.9,2.3,0.9,4.3v73.8
				c0,0.9,0.2,1.7,0.6,2.3c0.2,0.4,0.8,0.9,2.4,1.2C169.1,85,170.2,85.5,170.7,86.3L170.7,86.3z"/>
			<path class="st4" d="M238.8,56.9c0,0.6,0,1.1-0.1,1.7c-0.1,0.8-0.2,1.6-0.4,2.4c-0.8,3.5-2.7,6.5-5.7,9c-4,3.3-9,5-14.6,5
				c-2.9,0-6.6-1.1-11-3.2l-1-0.5c0,0,0,0.1,0,0.1c-0.3,0.6-0.6,1.1-1,1.4c-0.5,0.4-1.2,0.5-2.2,0.5c-0.7,0-1.7-0.1-2.9-0.4
				c-1.2-0.3-2.1-0.4-2.7-0.4c-0.6,0-1.6,0.1-2.8,0.4c-1.3,0.3-2.3,0.4-3.1,0.4c-0.8,0-1.5-0.2-2.2-0.5c-1.1-0.5-1.7-1.5-1.7-2.6
				c0-0.7,0.3-1.3,0.8-1.8c0.4-0.4,1.2-0.7,4-1.2c1.7-0.3,2.9-0.9,3.4-1.8c0.6-0.9,0.9-2,0.9-3.3V12.8c0-2.3-0.5-3.9-1.6-4.8
				c-0.6-0.5-1.6-0.8-3.1-1c-2.5-0.3-3.2-0.8-3.6-1.2c-0.5-0.6-0.8-1.2-0.8-2c0-0.6,0.3-1.5,1.5-2.2c0.8-0.4,1.6-0.6,2.4-0.6
				s1.8,0.1,3.2,0.4c1.2,0.3,2.2,0.4,2.7,0.4c0.4,0,1.1-0.1,2.4-0.3c1.2-0.2,2-0.3,2.7-0.3c1.3,0,2.3,0.4,3,1.1c0.6,0.7,1,1.9,1,3.6
				v56.1c0,1.6,1.1,3.1,3.4,4.4c2.4,1.5,4.7,2.2,6.8,2.2c2.4,0,5-1,7.8-3c2.7-1.9,4-5.1,4-9.7c0-3.5-1.1-6.6-3.2-9.1
				c-2.1-2.5-4.9-3.7-8.3-3.7c-1.3,0-2.6,0.3-3.9,1c-2.2,1.1-2.9,1.2-3.4,1.2c-0.6,0-1.3-0.2-1.9-0.7c-0.7-0.5-1-1.1-1-1.8
				c0-1.9,1.5-3.5,4.5-4.7c2.7-1.1,5.1-1.7,7.3-1.7c5.8,0,10.7,2,14.6,5.9v0c2.4,2.4,4,5.2,5,8.3c0.2,0.8,0.4,1.7,0.6,2.5
				C238.8,54.4,238.8,55.6,238.8,56.9z"/>
		</g>
		<g>
			<path class="st4" d="M390.9,27.8c0,1.6-0.7,3-1.9,4.1c-1.2,1.1-2.7,1.6-4.4,1.6s-3.2-0.6-4.4-1.8c-1.2-1.2-1.9-2.6-1.9-4.3
				c0-1.6,0.6-3,1.9-4.2c1.2-1.2,2.7-1.8,4.3-1.8c1.7,0,3.2,0.6,4.5,1.9C390.2,24.6,390.9,26.1,390.9,27.8z"/>
			<path class="st4" d="M441.5,70.3c0,1.6-1,2.5-2.8,2.5c-0.2,0-1.1,0-3-0.2c-4-0.3-6.8-0.2-8.9,0.2c-2,0.4-2.6,0.4-2.7,0.4
				c-0.8,0-1.6-0.3-2.2-0.8c-0.9-0.7-1.1-1.6-1.1-2.2c0-0.7,0.3-1.4,0.9-1.9c0.6-0.5,1.3-0.8,2.1-0.8c0.8,0,1.5-0.2,2.1-0.7
				c0.3-0.2,0.8-0.7,0.8-1.9c0-7.8,0.1-12.5,0.2-14.3c0.1-1.8,0.2-2.8,0.2-3c0-1.9-0.7-2.7-2.4-2.7c-0.4,0-1.4,0.3-3.6,2
				c-2.1,1.7-3.5,2.5-4.5,2.5c-0.5,0-1-0.3-1.6-0.8c-0.1-0.1-0.2-0.2-0.2-0.3c0,1,0,2,0,3l-0.3,13.7c0,0.8,0.1,1.1,0.1,1.3
				c0.1,0.1,0.3,0.2,0.8,0.5s1.2,0.5,2,0.7c1.2,0.3,2,0.6,2.4,1.2l0,0c0.4,0.5,0.6,1.1,0.6,1.8c0,0.8-0.3,2.6-3.5,2.6
				c-1.2,0-2.5-0.1-3.7-0.3c-1.1-0.2-2.3-0.3-3.4-0.3c-0.9,0-2.1,0.1-3.6,0.3c-1.6,0.2-2.7,0.3-3.5,0.3c-3.1,0-3.5-2-3.5-2.8
				c0-0.8,0.2-1.4,0.7-1.9c0.5-0.5,1.3-0.8,2.6-0.9c1.1-0.1,1.4-0.2,1.4-0.2c0.7-0.8,1-1.3,1.1-1.6c0.1-0.2,0.2-1,0.2-3.2V46.5
				c0-1-0.2-1.6-0.5-2c-0.1-0.2-0.6-0.6-2.3-0.9c-2.7-0.5-3-2.1-3-3c0-0.8,0.4-1.5,1.1-2.1c0.7-0.6,1.6-0.9,2.7-0.9
				c0.5,0,1.1,0.1,2.1,0.4c0.8,0.2,1.4,0.3,1.9,0.3c0.2,0,0.8,0,2.3-0.3c0.9-0.1,2-0.3,2.5-0.3c1,0,1.8,0.5,2.2,1.4
				c0.3,0.6,0.5,1.8,0.5,3.6c0,0.8,0,1.6,0,2.5c0.7-1.2,2.1-2.6,4.3-4.3c3.1-2.4,6.2-3.7,9.2-3.7c1.9,0,3.5,0.5,4.9,1.4
				c1.4,1,2.3,2.2,2.8,3.7c0.4,1.4,0.6,3.2,0.6,5.7l0,3.1V65c0,1.6,0.3,1.9,0.4,2c0.2,0.2,0.7,0.5,2,0.8
				C441.1,68.2,441.5,69.5,441.5,70.3z"/>
			<path class="st4" d="M395.2,70.6c0,1-0.5,2.6-3.8,2.6c-0.9,0-2.2-0.1-3.8-0.3c-1.6-0.2-2.8-0.3-3.5-0.3c-0.7,0-1.8,0.1-3.2,0.4
				c-1.6,0.3-2.7,0.4-3.5,0.4c-0.7,0-1.4-0.2-2-0.5c-1-0.6-1.7-1.7-1.7-2.8c0-0.7,0.2-1.3,0.7-1.8c0.5-0.5,1.3-0.8,2.8-1.1
				c1-0.2,1.6-0.4,1.9-0.8c0.1-0.1,0.5-0.7,0.5-3.6V46.3c0-1.4-0.3-1.9-0.5-2c-0.5-0.3-1.2-0.6-2.1-0.8c-1.4-0.3-2.3-0.7-2.7-1.3
				c-0.4-0.6-0.6-1.2-0.6-1.9c0-0.9,0.4-1.7,1.1-2.2c0.6-0.5,1.4-0.8,2.3-0.8c0.6,0,1.5,0.1,2.6,0.4c1.2,0.3,1.8,0.3,2,0.3
				c0.5,0,1.3-0.1,2.4-0.3c1.2-0.2,2.1-0.3,2.7-0.3c1,0,2.8,0.5,2.8,4c0,0.3,0,0.8,0,1.4c0,0.5,0,0.8,0,1v20.3
				c0,1.8,0.4,2.2,0.5,2.4c0.4,0.4,1.1,0.6,1.8,0.7c1.2,0.2,2,0.4,2.5,0.8C394.8,68.5,395.2,69.4,395.2,70.6z"/>
			<path class="st4" d="M485.1,65.2c-2-2.8-4.5-5-7.7-6.5l-0.2-0.2l0.3-0.4c3.2-2.2,4.7-5,4.7-8.5c0-3.3-1.1-6-3.4-8.2
				s-5.3-3.5-9.2-4c-0.4,0-0.6-0.2-0.6-0.5c0-0.3,0.5-0.9,1.6-1.7c1-0.9,2.4-1.3,3.9-1.3c0.3,0,0.7,0,1.2,0.1
				c0.5,0.1,0.9,0.2,1.2,0.2c1.4,0,2.6-0.3,3.5-1c0.9-0.7,1.3-1.6,1.3-2.7c0-1.9-0.9-2.8-2.7-2.8c-3.1,0-5.3,0.2-6.6,0.6
				c-1.3,0.4-2.7,1.5-4.3,3.3c-1.6,1.8-2.7,3.5-3.4,5c-0.2,0.5-0.6,0.7-1.1,0.8c-4.2,0.5-7.6,1.8-10.3,3.8c-2.7,2-4,4.6-4,7.7
				c0,1.9,0.5,3.7,1.4,5.3c0.9,1.6,2.2,2.9,3.8,3.9l0.4,0.5l-0.3,0.3c-3.3,1.4-5.9,3.4-7.9,6.1c-2,2.7-3,5.6-3,8.7
				c0,5.2,2.1,9.5,6.5,12.8c4.3,3.2,9.5,4.9,15.7,4.9c6,0,11.2-1.6,15.6-4.7c4.4-3.2,6.6-7.2,6.6-12.1C488,71,487,68,485.1,65.2z
				 M458,45.1c0.7-1.3,1.7-2.2,2.7-2.8c1.1-0.6,1.8-0.8,2.3-0.8c0.3,0,0.4,0.2,0.4,0.5c0,1.2,0.5,1.9,1.7,1.9c1.2,0,2-0.7,2.4-2.2
				c0.1-0.3,0.2-0.4,0.4-0.4c0.4,0,1.3,0.3,2.7,0.9c1.3,0.6,2.4,1.6,3.2,2.8c0.8,1.3,1.2,2.6,1.2,3.9c0,2.4-0.9,4.5-2.6,6.2
				c-1.7,1.7-3.8,2.6-6.3,2.6c-2.4,0-4.6-0.8-6.4-2.4c-1.9-1.6-2.8-3.5-2.8-5.8C456.9,47.8,457.3,46.4,458,45.1z M476.1,83.4
				c-2.8,2.4-6.3,3.6-10.5,3.6c-3.6,0-6.9-1.2-9.9-3.5c-3-2.4-4.5-5.5-4.5-9.3c0-4,1.3-7.2,3.8-9.5c2.5-2.3,6.1-3.5,10.7-3.5
				c4.2,0,7.7,1.2,10.5,3.5c2.8,2.3,4.1,5.4,4.1,9.3C480.4,77.9,479,81,476.1,83.4z"/>
		</g>
	</g>
</g>
</svg>
