<?xml version="1.0" encoding="utf-8"?>
<!-- Generator: Adobe Illustrator 25.0.0, SVG Export Plug-In . SVG Version: 6.00 Build 0)  -->
<svg version="1.1" id="Layer_1" xmlns="http://www.w3.org/2000/svg" xmlns:xlink="http://www.w3.org/1999/xlink" x="0px" y="0px"
	 viewBox="0 0 24 24" style="enable-background:new 0 0 24 24;" xml:space="preserve">
<style type="text/css">
	.st0{fill:#00748B;}
</style>
<path class="st0" d="M22,12c0-5.5-4.5-10-10-10C6.5,2,2,6.5,2,12c0,5.5,4.5,10,10,10C17.5,22,22,17.5,22,12z M20.5,12
	c0,4.7-3.8,8.5-8.5,8.5S3.5,16.7,3.5,12S7.3,3.5,12,3.5S20.5,7.3,20.5,12z M13.8,7.2C13.9,7,14.1,7,14.2,7C14.6,7,15,7.3,15,7.7v8.5
	c0,0.4-0.4,0.8-0.8,0.8c-0.2,0-0.3,0-0.5-0.2c-1.6-1.2-4.2-3.3-5.5-4.3C8.1,12.4,8,12.2,8,12c0-0.2,0.1-0.4,0.3-0.6L13.8,7.2z
	 M13.5,14.7V9.3L10,12L13.5,14.7z"/>
</svg>
