<?xml version="1.0" encoding="utf-8"?>
<!-- Generator: Adobe Illustrator 25.0.0, SVG Export Plug-In . SVG Version: 6.00 Build 0)  -->
<svg version="1.1" id="Layer_1" xmlns="http://www.w3.org/2000/svg" xmlns:xlink="http://www.w3.org/1999/xlink" x="0px" y="0px"
	 viewBox="0 0 24 24" style="enable-background:new 0 0 24 24;" xml:space="preserve">
<style type="text/css">
	.st0{fill:#00748B;}
</style>
<path class="st0" d="M2,12C2,6.5,6.5,2,12,2s10,4.5,10,10c0,5.5-4.5,10-10,10S2,17.5,2,12z M3.5,12c0,4.7,3.8,8.5,8.5,8.5
	s8.5-3.8,8.5-8.5S16.7,3.5,12,3.5S3.5,7.3,3.5,12z M10.2,7.2C10.1,7,9.9,7,9.8,7C9.4,7,9,7.3,9,7.7v8.5C9,16.7,9.4,17,9.8,17
	c0.2,0,0.3,0,0.5-0.2c1.6-1.2,4.2-3.3,5.5-4.3c0.2-0.1,0.3-0.4,0.3-0.6c0-0.2-0.1-0.4-0.3-0.6L10.2,7.2z M10.5,14.7V9.3L14,12
	L10.5,14.7z"/>
</svg>
